<?xml version="1.0" standalone="no"?>
<!DOCTYPE svg PUBLIC "-//W3C//DTD SVG 1.1//EN" "http://www.w3.org/Graphics/SVG/1.1/DTD/svg11.dtd" >
<svg xmlns="http://www.w3.org/2000/svg" xmlns:xlink="http://www.w3.org/1999/xlink" version="1.1">
<metadata>
Created by FontForge 20170731 at Sat Feb  4 12:43:22 2017
 By Aleksey,,,
Copyright (c) 2017 by stergios tsiamis - iordanis passas. All rights reserved.
</metadata>
<defs>
<font id="Manoyri-Regular" horiz-adv-x="485" >
  <font-face 
    font-family="Manoyri"
    font-weight="400"
    font-stretch="normal"
    units-per-em="1000"
    panose-1="0 0 5 0 0 0 0 0 0 0"
    ascent="800"
    descent="-200"
    x-height="424"
    cap-height="718"
    bbox="-176 -415 650.692 857.64"
    underline-thickness="50"
    underline-position="-200"
    unicode-range="U+0020-2260"
  />
<missing-glyph horiz-adv-x="500" 
d="M410 800v-1000h-317v1000h317zM333 733h-165v-33h65v-37h-66v-33h166v33h-66v37h66v33zM267 604h-100v-104h166v34h-66v70zM233 570v-36h-33v36h33zM333 473h-166v-33h66v-37h-66v-33h100v70h66v33zM333 413h-33v-66h-133v-34h166v100zM333 291h-100v-56h34v23h33v-47
h-100v80h-33v-113h166v113zM333 118h-166v-113h166v113zM300 85v-47h-100v47h100zM333 -18h-166v-33h70l-70 -47v-33h166v33h-102l70 47h32v33z" />
    <glyph glyph-name=".notdef" horiz-adv-x="500" 
d="M410 800v-1000h-317v1000h317zM333 733h-165v-33h65v-37h-66v-33h166v33h-66v37h66v33zM267 604h-100v-104h166v34h-66v70zM233 570v-36h-33v36h33zM333 473h-166v-33h66v-37h-66v-33h100v70h66v33zM333 413h-33v-66h-133v-34h166v100zM333 291h-100v-56h34v23h33v-47
h-100v80h-33v-113h166v113zM333 118h-166v-113h166v113zM300 85v-47h-100v47h100zM333 -18h-166v-33h70l-70 -47v-33h166v33h-102l70 47h32v33z" />
    <glyph glyph-name=".null" horiz-adv-x="0" 
 />
    <glyph glyph-name="nonmarkingreturn" horiz-adv-x="333" 
 />
    <glyph glyph-name="space" unicode=" " horiz-adv-x="290" 
 />
    <glyph glyph-name="exclam" unicode="!" horiz-adv-x="158" 
d="M123 608q-36 -2 -106 -26q-3 -1 -9 -5q-11 -6 -7 -18q11 -27 11 -76q2 -137 13 -233q3 -32 11 -70q7 -31 35 -51q12 -10 20 4q13 32 16 58q2 36 6.5 104.5t6.5 101.5q4 91 17 152q6 28 7 42q3 15 -14 17h-7zM121 77q-34 -1 -95 -24q-1 0 -7 -3q-10 -8 -4 -18q6 -8 10 -10
q17 -13 51 -37q11 -8 25.5 -4t19.5 16q22 42 26 50q7 17 1.5 23.5t-27.5 6.5z" />
    <glyph glyph-name="quotedbl" unicode="&#x22;" horiz-adv-x="200" 
d="M118 719v-15q0 -49 15 -111q1 -3 15 -37q6 -10 15 -3q6 7 11 14q13 23 15 61q2 52 11 70q-10 10 -36.5 17t-45.5 4zM0 698q8 -15 10 -47q1 -6 2 -18t2 -22t2 -18q5 -25 21 -40q11 -8 15 3q12 24 15 37q15 58 16 111q0 3 -0.5 7.5t-0.5 6.5q-16 4 -43 -2.5t-39 -17.5z" />
    <glyph glyph-name="numbersign" unicode="#" horiz-adv-x="540" 
d="M133 31q15 31 17 36q2 10 8 27t8 23q8 20 14 37q9 24 16 51h83q0 -2 -1.5 -7.5t-2.5 -8.5q-3 -10 -10 -29t-10 -29q-8 -23 10 -35q5 -3 13 -11q13 -10 19.5 -8.5t14.5 15.5l42 81q10 22 16 34q7 0 23 2q10 1 29 2t28 2q16 0 22 14q17 32 20 38q4 10 5 15q4 13 -10 13
q-9 0 -29 -2q-16 -2 -58 -8q5 17 15 47l30 3q32 4 47 7q11 2 14 8q19 32 29 58q7 16 -12 15q-4 0 -44 -6q-48 -6 -50 -6q0 2 0.5 7t1.5 7q4 15 12.5 45t13.5 45q1 5 3.5 13.5t3.5 11.5q2 9 -0.5 12t-12.5 3q-25 0 -84 -19q-11 -5 -14 -15q-3 -12 -9.5 -34.5t-9.5 -34.5
q-4 -15 -10 -47h-70q0 1 1 4t1 5q19 56 21 61q8 27 20 81q4 16 -12 16q-36 -1 -86 -21q-12 -3 -12 -16q-2 -40 -27 -124q-3 -9 -5.5 -10.5t-12.5 -2.5q-12 0 -35.5 -1.5t-35.5 -2.5q-23 -1 -57 -12q-3 -1 -8 -4.5t-6 -4.5l4 -6q26 -28 55 -32q16 -2 52 -4q4 -1 11 -1.5
t11 -0.5l-9 -45q-2 -10 -3.5 -11.5t-11.5 -2.5q-46 -3 -88 -16q-16 -8 -18 -13l11 -12q27 -25 62 -24h10.5h12.5h11q-2 -14 -2 -18q-10 -59 -13 -86q-4 -56 38 -68zM226 326h79q5 0 8 -1q0 -14 -10 -44q-25 -1 -89 -5q4 18 12 50z" />
    <glyph glyph-name="dollar" unicode="$" horiz-adv-x="593" 
d="M463 522l13 27q32 55 47 115q4 13 1 16.5t-16 3.5q-15 -1 -68 -15q-29 -8 -33 -36q-2 -14 -8 -28.5t-15 -31.5t-13 -26q-16 1 -47 2.5t-46 1.5q3 16 3 17q2 8 6.5 24t6.5 24q2 10 -0.5 13t-13.5 3q-28 -1 -75 -18q-11 -4 -16 -19q-4 -19 -14 -59q-8 -1 -19 -5
q-74 -20 -107 -38q-19 -11 -36 -24q-26 -21 -3 -47q7 -8 19 -18q43 -36 106 -52q16 -4 25 -7q-3 -23 -7.5 -66t-6.5 -63q-3 2 -8 4t-8 4l-6 4q-14 9 -14 22.5t13 24.5l15 8q8 5 8 8q2 23 -1 30q-49 0 -87 -29q-27 -21 -30 -60q0 -17 10 -28q16 -16 25 -23q35 -26 79 -37
q1 -4 2 -12.5t2 -12.5q6 -43 15 -59q8 -16 31 -26q15 18 18 42q2 17 8 61h47q-4 -34 4.5 -56.5t39.5 -33.5q6 7 11 16q3 9 13 40q8 22 11 33q4 12 16 13q30 5 60 12q70 17 95 30q28 14 37 25q21 25 33 66q6 21 -11 32q-26 18 -40 23q-17 6 -95 31q-3 1 -9 2.5t-9 2.5
q2 7 9.5 30t10.5 35q31 -9 45 -21q1 -1 40 -28q12 -7 18 3q20 33 26 58q3 14 -7 24t-16 14q-26 14 -45 21q-7 3 -20.5 7t-18.5 6zM258 411l9 60q42 2 75 -6q-2 -21 -14 -70q-46 10 -70 16zM135 448l33 10q-2 -16 -2 -24l-31 10v4zM307 313q-12 -48 -25 -108h-53q7 39 19 119
q3 0 59 -11zM376 218q16 58 20 73q14 -4 93 -28q-13 -11 -16 -13q-28 -17 -66 -25z" />
    <glyph glyph-name="percent" unicode="%" horiz-adv-x="495" 
d="M72 83q2 2 4.5 4t3.5 3q73 82 74 83q99 123 144 169q58 61 106 144q8 13 24 37.5t23 36.5q13 22 30 57q6 13 2.5 17.5t-17.5 3.5q-34 -1 -78 -19q-11 -5 -18 -15q-22 -33 -35 -58q-39 -82 -102 -152q-51 -59 -115 -143q-32 -41 -80 -121q-9 -16 5 -27q11 -9 29 -20z
M151 609q-33 0 -82 -18q-15 -5 -25 -22q-2 -3 -6.5 -7.5t-5.5 -6.5q-19 -21 -23 -28q-24 -40 11 -68q29 -23 49 -32q53 -26 100 4q57 38 72 120q3 18 -16 33q-34 28 -74 25zM130 541h6q16 -2 19.5 -6t-0.5 -22q-4 -17 -25 -33q-4 -4 -11 -2q-24 11 -32 17q-16 11 -1 28
q18 20 44 18zM330 74q27 -2 47 7q64 25 86 105q9 32 -25 47q-24 12 -51 12q-77 1 -146 -44q-9 -6 -25 -22q-27 -29 2 -56q55 -52 112 -49zM294 160q38 22 81 16q0 -16 -13 -27t-27 -8q-26 5 -41 19z" />
    <glyph glyph-name="ampersand" unicode="&#x26;" horiz-adv-x="453" 
d="M212 268q47 67 60 87q52 76 71 119q22 46 17 111q-1 11 -6 23q-13 37 -51 37q-80 3 -137 -29q-74 -42 -113 -119q-9 -16 -12 -38q-8 -75 23 -135l34 -61q-2 -4 -8 -12q-8 -13 -24.5 -38.5t-24.5 -38.5q-36 -63 -41 -120q-3 -40 23 -65q28 -27 50 -41q46 -34 102 -10
q9 4 26 13t21 11q35 20 107 58q1 -1 5 -3.5t6 -4.5q33 -26 75 -43q11 -4 16.5 -2.5t10.5 12.5q1 2 2.5 5.5t2.5 5.5q5 10 -2 17l-3.5 3.5t-3.5 4.5q-16 18 -50 54q12 18 15 24q10 19 15 32q6 15 -10 15q-15 0 -45 -2q-4 -1 -12.5 -3.5t-12 -2.5t-11.5 1q-4 1 -8.5 5
t-9.5 10.5t-8 9.5q-27 28 -89 110zM254 569q5 -55 -11 -91q-14 -28 -23 -41q-23 -35 -50 -74q-2 -4 -9 -11q-4 6 -5 9q-22 50 -12 118q2 6 5 13q43 51 82 69q4 2 12 4.5t11 3.5zM157 186l99 -104q-18 -12 -57.5 -32.5t-57.5 -33.5q-25 12 -28 37q-3 30 10 69.5t34 63.5z" />
    <glyph glyph-name="quotesingle" unicode="'" horiz-adv-x="82" 
d="M1 741q-1 -5 -1 -14q0 -51 15 -111q1 -2 15 -37q6 -11 15 -3q6 5 11 14q13 20 15 60q2 50 11 70q-10 10 -36 17t-45 4z" />
    <glyph glyph-name="parenleft" unicode="(" horiz-adv-x="292" 
d="M1 376v-13q0 -118 66 -206q30 -42 89 -92q49 -42 86 -62q20 -9 26 -6.5t17 21.5q6 11 -1 19q-3 4 -13 16t-16 18q-54 58 -88 104q-56 81 -56 165q1 36 6 74q14 106 80 187q32 38 50 83q8 20 -14 21q-38 1 -101 -18q-13 -3 -18 -14q-8 -18 -18 -32q-28 -40 -61 -109
q-39 -88 -34 -156z" />
    <glyph glyph-name="parenright" unicode=")" horiz-adv-x="291" 
d="M285 375q6 58 -18 120q-32 80 -74 143q-4 5 -10.5 17.5t-10.5 17.5q-9 11 -16 13q-63 19 -101 18q-13 -1 -16 -5.5t2 -16.5q0 -3 2 -5q5 -8 13.5 -24t16 -28t15.5 -22q45 -55 71 -134q11 -33 17 -114q3 -60 -19 -113q-22 -54 -83 -127q-48 -54 -68 -76q-11 -12 -2 -25
l5 -8q10 -16 27 -8q16 6 29 15q65 44 122 103q41 43 64 90q40 81 34 169z" />
    <glyph glyph-name="asterisk" unicode="*" horiz-adv-x="354" 
d="M264 657h11.5h12h9.5q13 0 17 9q22 42 31 63q7 16 -12 17h-9q-11 0 -32 -2t-31 -2q-7 -1 -19.5 -2.5t-18.5 -1.5l-4 7q-20 42 -29 64q-5 11 -13 10q-37 0 -80 -19q-12 -5 -7 -17q4 -11 14 -31q5 -12 13 -30q-33 -5 -38 -6q-39 -9 -64 -16q-25 -8 -4 -27q4 -4 14 -12
q26 -18 48 -16h45q0 -1 0.5 -3t0.5 -4q-1 -42 -27 -82q-1 -2 -4 -5.5t-5 -6.5t-3 -6q-4 -7 0 -11q10 -13 25 -23q5 -2 16 0q3 1 15 11q21 19 46 61l7 13q34 -42 85 -74q16 -8 24 -11q11 -5 17 5l11 21q11 22 16 33t-8 17q-15 7 -29 21.5t-20 23.5t-21 32z" />
    <glyph glyph-name="plus" unicode="+" horiz-adv-x="470" 
d="M163 384l-23 -3q-67 -7 -116 -25q-3 -1 -19 -9q-9 -6 -3 -15q6 -8 10 -12q5 -5 16.5 -13.5t17.5 -12.5q26 -20 57 -15q18 2 27 2l38 3q0 -5 0.5 -13.5t1.5 -12.5q7 -69 13 -110q2 -16 10 -22q11 -9 35 -25q12 -7 18 4q24 38 26 62q1 16 4.5 50.5t5.5 52.5q0 6 2 22h22
l96 3q17 0 23 10q30 50 38 77q7 20 -16 20h-6q-80 -4 -120 -5q0 -1 -16 -1l-16 1l-3 51q0 10 -2 29.5t-2 29.5q0 14 -1 21q-1 14 -15 14q-45 0 -106 -25q-13 -6 -12 -22q7 -70 12 -89q1 -2 3 -22z" />
    <glyph glyph-name="comma" unicode="," horiz-adv-x="145" 
d="M118 54q-43 -3 -94 -23q-21 -8 -9 -26q15 -24 5 -46l-12 -27q-10 -19 -8 -45q1 -10 10 -14.5t18 0.5q24 13 45 39q35 45 63 120q6 14 2 18.5t-20 3.5z" />
    <glyph glyph-name="hyphen" unicode="-" horiz-adv-x="361" 
d="M0 320q13 -17 17 -20q19 -16 37 -27q16 -9 29 -9q37 -1 110.5 -2.5t110.5 -2.5q16 0 23 13l29 58q1 1 1.5 3l1 4t0.5 3q4 14 -11 17h-16q-32 0 -97.5 -1.5t-98.5 -2.5q-58 0 -113 -21q-4 -2 -11.5 -6t-11.5 -6z" />
    <glyph glyph-name="period" unicode="." horiz-adv-x="172" 
d="M97 124q-21 -1 -81 -20l-11 -6q-8 -7 -3 -15q4 -6 6 -8q52 -48 90 -70q13 -7 19.5 -5t13.5 14q18 30 30 58q3 6 7 20q3 11 -7 16q-38 18 -64 16z" />
    <glyph glyph-name="slash" unicode="/" horiz-adv-x="398" 
d="M0 15q0 -5 0.5 -15t1.5 -15q2 -20 13 -30q11 -9 20 1q7 7 15 21q3 6 16.5 32.5t19.5 41.5q82 186 128 277q18 34 47.5 97.5t40.5 85.5q22 47 44 81q24 37 45 86q2 6 4 18q3 14 -12 15h-8q-34 -1 -107 -26q-10 -5 -12 -7q-6 -6 -5 -12q1 -8 -8 -32l-89 -194
q-38 -88 -53 -118q-65 -144 -89 -236q-13 -53 -12 -71z" />
    <glyph glyph-name="zero" unicode="0" horiz-adv-x="344" 
d="M5 256v-35q0 -58 2 -74q2 -13 8 -36.5t8 -30.5q11 -45 47 -72q40 -30 86 -9q45 20 55 25q13 5 22 14q30 36 39 52q42 75 52 172q2 14 4 46.5t5 49.5q11 71 4 159q-3 59 -53 98l-32 24q-59 45 -114 46q-23 1 -43 -11q-27 -18 -50 -68q-17 -39 -35 -119q-15 -74 -7 -134
q2 -12 2 -35v-62zM156 564q60 -14 66 -74q5 -44 -2 -106q-2 -17 -4 -36.5t-4.5 -42.5t-3.5 -36q-4 -44 -35 -111q-5 -12 -19.5 -28.5t-23.5 -22.5q-7 6 -9 24q-3 27 -7 83q-1 17 -1.5 36.5t-1 43.5t-0.5 37q-1 10 1 30q2 12 2 20q0 57 22 126q2 10 20 57z" />
    <glyph glyph-name="one" unicode="1" horiz-adv-x="255" 
d="M131 482l-3 -72q0 -10 -0.5 -28t-1 -32.5t-1.5 -27.5q-1 -23 -4 -68.5t-4 -67.5q-3 -74 10 -131q5 -25 21 -43q23 -25 37 8q0 1 0.5 3t0.5 3q8 40 11 59q2 20 6.5 62t7.5 63q1 10 6 42.5t7 50.5q2 25 5 76t5 76q10 110 15 136q3 17 1 54q-2 36 -37 25q-10 -3 -16 -7
q-60 -27 -89 -52q-9 -8 -20 -16.5t-25 -18.5t-21 -16q-2 -2 -14 -11.5t-18 -14.5q-19 -16 1 -32q13 -10 41 -28q12 -8 25 -14q16 -8 28 3q3 3 26 19z" />
    <glyph glyph-name="two" unicode="2" horiz-adv-x="406" 
d="M180 128q2 4 46 86l45 91q46 91 47 171q0 44 -10 96q-6 28 -29 50q-29 24 -65 27q-64 5 -109 -25q-22 -14 -61 -49q-21 -18 -23 -47q0 -15 5 -21q16 -16 35 -20q11 18 41 39q38 23 84 25q10 0 12.5 -2.5t4.5 -12.5t1 -15q0 -50 -12 -90q-15 -49 -44 -104
q-16 -29 -47 -87.5t-47 -87.5q-43 -78 -51 -102q-4 -12 -2.5 -18.5t13.5 -12.5q8 -5 24.5 -14.5t24.5 -14.5q27 -18 56 -3q26 13 58 21q58 12 89 9q2 0 3 1q40 4 79 -16q9 -6 25 -11q13 -4 22 2.5t9 19.5q0 10 -2 29.5t-2 26.5q-1 27 -31 44q-44 25 -130 21q-11 -1 -32 -3
t-27 -3z" />
    <glyph glyph-name="three" unicode="3" horiz-adv-x="372" 
d="M243 605q1 -26 -8 -46q-28 -64 -86 -105q-23 -18 -44 -18q-17 -2 -35 -6q-10 -2 -17 -6q-19 -10 -6 -27q6 -8 21 -26.5t23 -28.5q11 -14 33 -12q1 0 21 1t31 2q20 3 59 -18q8 -4 10 -16q7 -38 -29 -69q-44 -36 -94 -73q-9 -7 -34 -26t-43 -31.5t-36 -21.5q-15 -7 -6 -19
q33 -49 49 -69q13 -17 34 -5q24 14 35 22q56 42 168 128q27 22 38 43q22 44 30 67q17 55 -4 96q-18 35 -53 62q-5 4 -28 20q3 6 5 8q37 55 56 123q8 29 5 65q-3 29 -24 48q-30 30 -83 30q-80 1 -155 -35q-35 -19 -46 -33q-7 -9 -7 -16q1 -23 21 -48q57 24 60 26
q46 25 105 20q6 -1 18.5 -3t15.5 -3z" />
    <glyph glyph-name="four" unicode="4" horiz-adv-x="418" 
d="M236 170l3 -40q3 -54 17 -100q6 -21 36 -42q14 -10 19 7q5 12 7 28q2 17 4.5 50.5t3.5 49.5l3 50q11 1 29.5 2.5t26.5 1.5q14 2 19 6t6 17q3 23 1 70q0 21 -25 23q-9 1 -28 -1q-4 0 -12.5 -0.5t-13.5 -0.5v24q2 27 9 113t10 133q3 51 0 103q-1 47 -44 27q-25 -13 -57 -32
q-9 -5 -12 -13q-15 -30 -21 -49q-9 -25 -57 -116l-43 -75q-42 -75 -66 -104q-6 -7 -21 -24t-22 -26q-17 -23 8 -40q7 -5 21.5 -13t21.5 -13q24 -16 57 -16h104h16zM235 287q-14 0 -48 -2q3 5 19.5 34.5t25.5 44.5h3q1 -11 1 -23.5t-0.5 -28.5t-0.5 -25z" />
    <glyph glyph-name="five" unicode="5" horiz-adv-x="336" 
d="M132 552q5 1 14 3q62 2 92 2q20 0 31 10q36 30 53 46q19 19 -6 29l-39 15q-33 18 -104 16q-19 -1 -57 -4t-56 -4l-14 -2q-26 -4 -29 -30q-1 -7 -1 -19v-69.5t-1 -69.5q0 -12 -1 -25t-2.5 -29.5t-2.5 -25.5q-2 -31 -1 -46q1 -12 7 -36q7 -35 41 -27q39 8 94 -4
q43 -11 67 -44q17 -20 8 -45q-20 -52 -29 -67q-21 -39 -66 -50q-30 -8 -44 4q-31 25 -43 46q-9 15 -38 23q-7 -18 -4 -36q5 -30 25 -67q23 -39 64 -52t79 4q31 12 71 52q61 59 79 131q13 55 1 88q-22 59 -75 87q-8 4 -22.5 10.5t-17.5 7.5l-73 27v151z" />
    <glyph glyph-name="six" unicode="6" horiz-adv-x="323" 
d="M120 397q1 3 2 8t2 8q15 37 44 74q30 37 70 64q36 26 59 24h6q11 3 14 11t-4 17q-4 4 -8 8.5t-9.5 9.5t-8.5 8q-34 32 -82 13q-56 -23 -96 -67q-47 -51 -63 -89q-37 -90 -42 -168q-4 -74 -4 -110q0 -47 15 -102q16 -54 31 -78q34 -52 87 -39q43 8 49 10q25 7 41 19
q21 17 38 41q53 73 48 170q-1 27 -15 53q-23 45 -82 92q-40 31 -84 23h-8zM132 83q-10 28 -11 34q-18 62 -18 116q0 12 8 20q5 5 14.5 15.5t14.5 15.5q8 8 17 3q38 -25 48 -66q12 -52 -16 -88q-15 -22 -29 -37q-10 -12 -28 -13z" />
    <glyph glyph-name="seven" unicode="7" horiz-adv-x="384" 
d="M242 530q-19 -36 -34 -65q-27 -49 -31 -59q-18 -44 -29 -84q-25 -88 -39 -179q-6 -41 -9 -80q-2 -58 39 -79q15 -9 23 5q1 1 6 14q5 21 20 81.5t24 93.5q7 25 21 70t19 61q19 57 53 111l69 113q6 10 6 18q0 40 -1 60q-2 19 -10 26.5t-26 8.5q-11 0 -34 1t-35 1
q-107 0 -160 -1q-10 0 -26 -4q-9 -3 -17 -6.5t-17 -9t-15 -9t-16.5 -11t-14.5 -10.5q-9 -7 -8 -16t12 -15q28 -17 62 -33q16 -8 32 -3q3 1 20 1q3 0 10.5 -0.5t11.5 -0.5h66h28z" />
    <glyph glyph-name="eight" unicode="8" horiz-adv-x="368" 
d="M257 367q4 6 13 18t13 18q29 51 38 135q2 24 -11 54q-7 17 -44 58q-35 37 -80 31q-90 -12 -134 -67q-41 -52 -51 -111q-5 -45 17 -75q16 -23 37 -38q2 -2 9 -7.5t12 -8.5q-27 -52 -34 -64q-25 -44 -33 -104q-9 -68 -3 -135q2 -39 25 -62q44 -43 106 -23q66 20 118 58
q15 11 42 38q69 69 61 153q-5 67 -56 104q-22 14 -34 21q-2 2 -6 4.5t-5 2.5zM226 520q1 -43 -29 -78q-16 -16 -35 -10q-40 10 -65 47l-3 7q-4 20 6 39q15 23 26 28q4 2 12 5.5t13.5 6t12.5 4.5t14 2q47 3 49 -45q0 -1 -0.5 -3t-0.5 -3zM108 83q-4 19 -6 36q-4 67 27 139
q7 15 10.5 17.5t19.5 1.5q43 -4 59 -10q22 -6 37 -32q10 -19 2 -33q-48 -88 -120 -113q-4 -1 -29 -6z" />
    <glyph glyph-name="nine" unicode="9" horiz-adv-x="359" 
d="M235 236q-2 -27 -4 -31q-18 -58 -23 -68q-28 -53 -39 -68q-19 -26 -54 -21q-16 3 -38 1q-10 0 -26 -6q-19 -7 -2 -19q43 -34 115 -43q13 -1 37 7q17 7 33 20t25 24.5t22 31.5q41 58 68 180q1 6 7 68q4 44 -2 90q-7 62 -35 132q-7 17 -15 28q-37 50 -89 62q-48 11 -86 -15
q-7 -4 -69 -53q-26 -22 -40 -65q0 -2 -3 -14t-6 -18q-11 -26 -11 -74q2 -48 24 -73q24 -24 49 -38q42 -24 106 -34q10 -2 56 -4zM246 397q0 -15 -11 -28t-25 -13q-52 -3 -87 28q-11 10 -7 23q14 46 15 50q16 42 48 49q11 3 18 -4q15 -15 16 -17q30 -52 33 -88z" />
    <glyph glyph-name="colon" unicode=":" horiz-adv-x="171" 
d="M131 271q-45 -3 -100 -25q-12 -5 -22 -16q-17 -15 0 -29q3 -3 40 -31q15 -11 35 -4q3 1 10 3t10.5 3.5t8.5 4.5t7 8q19 33 32 65q6 13 2 17.5t-19 3.5h-4zM132 118q-38 0 -95 -21q-11 -4 -15 -8.5t-2.5 -10.5t9.5 -15q29 -35 76 -59q16 -9 27 8l32 63q3 7 3 15q2 6 -3 11
q-16 21 -32 17z" />
    <glyph glyph-name="semicolon" unicode=";" horiz-adv-x="172" 
d="M97 265q-21 -1 -81 -20l-11 -6q-8 -7 -3 -15q4 -6 6 -8q52 -48 90 -70q13 -7 19.5 -5t13.5 14q18 30 30 58q3 6 7 20q3 11 -7 16q-38 18 -64 16zM127 114q-43 -3 -94 -23q-13 -4 -14.5 -10t5.5 -16q13 -24 5 -46l-12 -27q-10 -19 -8 -45q0 -10 9 -14.5t18 0.5
q27 15 45 39q37 48 64 120q5 14 1.5 18.5t-19.5 3.5z" />
    <glyph glyph-name="equal" unicode="=" horiz-adv-x="451" 
d="M240 266v-1h8q44 -1 133 -1q19 0 26 12q22 42 32 64q7 16 3 21.5t-21 5.5t-49 -0.5t-49 -0.5l-198 -3q-37 -1 -96 -22q-28 -10 -6 -32q2 -2 13 -10t16 -13q27 -22 63 -20h125zM272 169v-1q-22 0 -64.5 -1t-63.5 -2q-68 -2 -118 -20q-14 -6 -21 -10q-10 -5 -2 -14
q5 -7 8 -9q35 -27 50 -36q4 -3 16 -5q30 -2 44 -2q44 -1 132 -2t132 -2q21 0 29 16q9 18 27 52q2 5 7 22q1 12 -10 13q-7 1 -21 1h-145z" />
    <glyph glyph-name="question" unicode="?" horiz-adv-x="367" 
d="M140 126q1 0 2.5 0.5t2.5 0.5q0 13 -1 16q-2 7 -11 32q-1 2 -3.5 12t-3.5 16q-5 31 15 47q3 3 12 11.5t14 12.5q8 6 32.5 23t36.5 27q38 27 59 47q20 18 47 74q35 78 -3 151q-29 55 -79 58q-101 6 -189 -27q-59 -21 -70 -87q-5 -26 9 -46q20 -28 63 -49q12 -7 20 6
q22 35 21 63q0 16 4.5 22t19.5 11q18 4 27 5h22h23q12 0 20 -14q8 -15 12 -64q1 -22 -10 -43q-14 -30 -53 -61q-65 -53 -95 -90q-14 -18 -20 -28q-9 -14 -5 -29q6 -25 13 -34q15 -19 49 -51q4 -4 19 -12zM184 92q-29 0 -83 -18q-17 -7 -18.5 -14t12.5 -20q37 -33 93 -57
q17 -8 27 9q9 16 25 48q1 2 2.5 8t2.5 8q3 12 -7 18q-32 20 -54 18z" />
    <glyph glyph-name="at" unicode="@" horiz-adv-x="529" 
d="M269 149q1 -1 2.5 -3t3 -3t2.5 -2q39 -33 41 -35q46 -32 84 3q28 27 44 50q49 77 69 161q13 53 4 110q-2 15 -5 32t-7 38t-6 32q-8 38 -36 59q-37 27 -78 30q-61 5 -138 -32q-97 -48 -173 -134q-33 -37 -55 -89q-29 -69 -18 -142q23 -161 148 -249q32 -25 61 -31
q59 -11 111 8q25 10 45 20q60 31 92 76q19 29 26 61q-20 -3 -21 -3q-36 -16 -48 -23q-65 -42 -107 -56q-18 -5 -22 -5q-60 -4 -104 41q-35 36 -62 97q-34 78 -25 155q5 40 25 65q74 94 183 148q39 19 87 4q17 -6 20 -22q1 -8 4.5 -24t5.5 -24q1 -6 6 -30t7 -37
q7 -71 -16 -126q-12 -28 -36 -71q-10 -18 -22 -25q-18 11 -18 33q-3 59 30 164q8 24 7 30q-26 0 -55 -17q-11 8 -37 6q-61 -9 -90 -43q-7 -8 -20.5 -24t-20.5 -23q-32 -35 -21 -95q9 -50 71 -85q22 -13 42 8q3 3 20 22zM255 320q7 -16 -4.5 -53.5t-29.5 -58.5q-17 44 0 68
q8 12 26 36q1 1 2 2.5t3 3t3 2.5z" />
    <glyph glyph-name="A" unicode="A" horiz-adv-x="486" 
d="M283 191q23 -57 45 -111q6 -15 9 -18q30 -32 77 -56q10 -7 21 4q5 5 8 11l24 45q13 27 13 39t-12 40q-6 15 -17.5 43t-16.5 40q-6 13 2 27q9 16 16 40q4 13 0 17.5t-17 4.5h-23q-3 11 -10 44q-23 110 -40 262q-3 22 -11 66q-3 11 -8.5 14.5t-17.5 3.5q-47 -1 -115 -27
q-12 -5 -18 -16q-9 -15 -23 -49q-16 -41 -47.5 -124t-46.5 -125q-6 -15 -12 -32t-13 -38t-11 -32q0 -1 -3.5 -12t-8.5 -16q-2 -1 -2 -7l-3 -29q-11 -48 -17 -80q-9 -47 -1 -82q6 -26 16 -34q28 -22 43 -31q14 -8 22 5q29 48 33 81q7 37 13 62q6 24 19 64q26 5 73.5 5t59.5 1
zM256 299q-14 -1 -71 -8q13 39 50 117q12 -58 21 -109z" />
    <glyph glyph-name="B" unicode="B" horiz-adv-x="487" 
d="M302 702h-56q-10 -2 -15 -2q-92 -7 -164 -31q-22 -6 -49 -20q-23 -11 -15 -36q1 -5 4.5 -14.5t4.5 -11.5q10 -30 14 -45q8 -28 22 -82q29 -114 31 -133q8 -69 31 -147q6 -21 16 -63l-6 -3q-4 -2 -29 -10.5t-38 -13.5q-15 -5 -25 -12q-19 -14 -7 -34q6 -10 11 -15
q42 -38 63 -56q16 -15 38 -7q10 3 40 11.5t47 14.5q54 20 85 36q82 41 119 110q33 61 50 121q14 42 2 93q-17 78 -97 115l-32 12l6 15q4 12 14 36t14 36q12 36 5 73q-5 33 -36 49q-6 3 -19 6.5t-16 4.5zM170 556l63 3q-3 -14 -19 -29.5t-35 -22.5q-3 23 -9 49zM206 140
q-4 130 -7 202q76 2 111 -12q10 -3 11 -12q19 -68 -16 -110q-36 -42 -85 -64q-4 -2 -10 -4h-4z" />
    <glyph glyph-name="C" unicode="C" 
d="M203 583l44 -3q8 -2 11 -6q20 -28 18 -49q-1 -21 19 -38q38 -34 85 -58q9 -5 11 -5q14 -5 23 4q7 6 12 14l42 76q22 39 -1 84q-53 104 -169 115q-86 9 -204 -36q-20 -8 -30 -24q-18 -30 -25 -47q-41 -99 -39 -207q0 -1 3 -133q3 -97 70 -173q53 -60 135 -102
q29 -15 66 -15q40 0 63 33q22 36 32 55q22 41 42 131q3 13 3 40q0 12 -4 15.5t-16 1.5q-18 -2 -54 -12q-19 -5 -20 -23q-3 -30 -20 -58q-25 -47 -26 -49t-3 -4.5t-3.5 -5t-2.5 -5.5l-9 7q-4 3 -12 11q-72 69 -75 169q-1 82 5 173q4 54 29 124z" />
    <glyph glyph-name="D" unicode="D" horiz-adv-x="489" 
d="M92 94q-3 -1 -6.5 -2.5t-5.5 -1.5q-48 -14 -59 -19q-37 -15 -7 -40q18 -16 58 -44q37 -27 85 -11q26 9 78 33q45 21 93 65q83 78 138 207q16 41 15 79q-1 11 -1 33.5v33.5q0 26 -4 46q-21 102 -115 173q-55 40 -147 59q-24 3 -44 2q-45 -2 -120 -29q-3 -2 -11 -6
q-13 -8 -9 -23q0 -2 6 -32q8 -64 11 -97q10 -116 14 -175q8 -120 18 -178q2 -10 6.5 -34.5t6.5 -38.5zM205 559q35 -10 48 -26q49 -60 53 -126q1 -31 1 -94q0 -34 -27 -72q-24 -38 -68 -80l-6 -4q-2 55 1 201t-2 201z" />
    <glyph glyph-name="E" unicode="E" horiz-adv-x="481" 
d="M109 54q-7 -4 -23 -12q-17 -9 -27 -17q-18 -15 -3 -32t24 -24q28 -25 59 -17q14 3 41.5 8.5t40.5 8.5q105 26 187 31q17 0 24 18q21 48 38 91q3 5 5 19q3 22 -18 22q-34 0 -58 -5q-69 -12 -182 -48q-10 -4 -15 -5l-3 164q95 23 108 26q14 3 29 3q14 -1 19 2t11 15
q9 18 34 81q4 11 6 24q2 11 -2 15.5t-15 3.5q-31 -3 -61 -9q-47 -9 -124 -37l-18 -6q-2 16 -10 70t-10 83q44 6 62 8q65 9 85 10q24 1 34 22l30 71q5 16 8 28q2 13 -2 18t-17 5q-37 -1 -73 -6q-22 -3 -65.5 -9t-65.5 -8q-77 -10 -129 -33q-18 -8 -26 -14q-12 -9 -7 -26
l12 -49q1 -5 2.5 -14.5t2.5 -14.5l45 -233q5 -22 12.5 -66.5t11.5 -66.5q2 -12 23 -95z" />
    <glyph glyph-name="F" unicode="F" horiz-adv-x="482" 
d="M197 293l6 2q98 10 140 14q23 2 31 21q3 8 14 31t17 36q4 8 8 28q3 17 -15 17q-12 0 -34 -2q-90 -12 -154 -30l-18 -3q-3 27 -10.5 79.5t-11.5 78.5h16h173q17 0 26 -7q16 -11 30 0q18 13 22 23q16 31 36 78q3 6 5 20q3 17 -15 18h-26q-70 1 -211 1q-14 0 -41.5 1
t-40.5 1q-50 0 -127 -32q-3 -1 -9 -5q-11 -9 -7 -20q1 -4 3 -12.5t4 -15t5 -11.5q14 -35 19 -63l9 -38q28 -107 35 -175q9 -119 25 -188q3 -15 27 -107q12 -41 49 -66q2 -2 7 -4t7 -3q16 24 18 44q1 18 1 54q-2 109 -7 149q-1 7 -6 86z" />
    <glyph glyph-name="G" unicode="G" horiz-adv-x="483" 
d="M332 54q18 -30 24 -35q18 -17 58 -45q18 -14 29 7q18 35 33 69q8 18 3 38q-3 18 -10 54t-10 54q-1 6 -7 30.5t-7 30.5t-4.5 31t0.5 32v2q-1 17 -17 16q-36 -4 -55 -8q-28 -7 -82 -23q-10 -2 -28.5 -8t-21.5 -7q-34 -13 -51 -29q-12 -11 0 -23q2 -3 17 -15q16 -15 34 -9
q4 2 26 4l36 3q-22 -67 -60 -125h-5q-1 0 -2.5 1t-2.5 2q-51 27 -76 92q-17 48 -17 97q-2 105 10 174q3 22 14 85q3 15 16 23q2 -3 5 -6.5t4 -6.5l21 -36q29 -51 107 -99h1l2 -1q15 -7 26 7l6 9q3 7 14 29t17 35q5 12 9 30q2 12 -3 21q-26 45 -45 72q-24 39 -62 65
q-26 17 -50 16q-42 -2 -68 -9q-41 -14 -53 -17q-42 -11 -66 -56q-33 -64 -38 -147q-6 -93 0 -188q2 -45 7 -81q12 -92 81 -152q26 -22 67 -49q41 -30 111 -21q31 5 44 31z" />
    <glyph glyph-name="H" unicode="H" 
d="M144 416l-3 15q-6 56 -10 89q-13 93 -29 147q-2 7 -17 42q-6 13 -19 10l-38 -8q-23 -6 -24 -28q-3 -23 -3 -43q-2 -158 4 -236q8 -106 8 -196q-1 -42 1 -122q0 -44 25 -68q12 -10 43 -33q16 -11 26 7q20 38 28 58q7 20 10 45q1 10 1.5 21.5t1 25.5t0.5 21v131q0 11 1 17
l148 12q0 -6 0.5 -16t0.5 -15v-125q0 -14 0.5 -41.5t1.5 -41.5q2 -43 23 -63q10 -9 47 -37q14 -10 23 6q39 67 40 115q0 33 0.5 98t1.5 98q0 5 -0.5 15t-0.5 17.5t1 14.5q2 7 5.5 14t8.5 15t7 13q16 34 21 51q4 13 0.5 17.5t-16.5 4.5q-12 0 -36 -2q-1 9 -3.5 27.5
t-4.5 28.5q-13 92 -28 148q-2 7 -17 42q-7 15 -22 12l-40 -10q-16 -4 -19 -20q-4 -24 -4 -36q0 -33 0.5 -101t0.5 -102q0 -2 -0.5 -6t-0.5 -6q-96 -14 -144 -22z" />
    <glyph glyph-name="I" unicode="I" horiz-adv-x="162" 
d="M0 254h1v-76q0 -58 11 -105q8 -29 27 -50q23 -23 50 -38q7 -4 11 -4.5t7.5 2t7.5 9.5t25 46q12 27 12 62q-5 142 -5 172q-1 63 9 185q7 82 -7 200q-1 20 -6 40q-3 14 -8.5 18t-19.5 3q-18 -2 -52 -12q-24 -6 -32 -28q-8 -20 -9 -30q-4 -38 -6 -75q-3 -118 -3 -119
q-2 -33 -6.5 -99.5t-6.5 -100.5z" />
    <glyph glyph-name="J" unicode="J" horiz-adv-x="483" 
d="M184 99q-12 10 -18 31q-15 70 7 121q4 8 10.5 25t9.5 26q10 26 11 35q4 13 0 17.5t-18 4.5q-36 -1 -80 -15q-30 -10 -45 -16q-16 -6 -20 -21q-11 -40 -19 -67q-18 -57 -9 -116q7 -58 39 -87q33 -30 73 -53q34 -18 59 -13q70 15 103 61q24 34 49 94q25 58 27 151
q0 20 -2 125q-2 87 -12 139l-6 31q4 1 10 1l43 3q31 0 44 26q9 20 29 58q8 20 10 31q3 12 -0.5 16.5t-16.5 3.5q-27 -1 -56 -6q-67 -10 -81 -11q-113 -10 -197 -35q-40 -12 -104 -34q-19 -6 -24 -19q2 -2 5.5 -7.5t6.5 -7.5q2 -2 28 -22q24 -19 53 -15q60 8 91 11q14 2 42 4
q0 -1 1 -3l1 -2v-46q1 -47 0 -47q0 -28 -0.5 -59.5t-1.5 -69.5t-1 -59q0 -62 -18 -134q-7 -32 -23 -50z" />
    <glyph glyph-name="K" unicode="K" horiz-adv-x="409" 
d="M124 345q-1 1 -3 1q-1 3 -1 10q-2 104 -2 157v50q-1 26 -21 74q-15 37 -44 8q-9 -10 -25 -29t-22 -25q-6 -7 -6 -22q0 -25 -0.5 -75.5t-0.5 -76.5q0 -29 2 -87q6 -101 15 -141q6 -27 15.5 -76t13.5 -66q5 -21 19 -47q3 -10 14 -15q19 -9 37 -15q13 -4 19 10q2 8 2 14
q2 40 1 59q0 16 -1 34t-2.5 40t-2.5 34q0 21 1 27q28 -21 45 -36q23 -20 65 -76q30 -42 50 -59q21 -17 33 -17q32 0 62 3q13 1 15 16q1 15 -8 37q-15 33 -46 74q-66 88 -108 125q-14 14 -23 21q5 8 15 22q60 93 73 110q44 60 92 156q14 26 0 43q-30 42 -39 52q-23 26 -40 -4
q-10 -14 -18 -32q-30 -63 -59 -105q-24 -34 -87 -127q-20 -30 -30 -46z" />
    <glyph glyph-name="L" unicode="L" horiz-adv-x="373" 
d="M173 120v23q4 310 6 466q1 22 1 68q0 19 -20 18q-40 -4 -61 -8q-16 -4 -65 -20q-8 -3 -22 -11q-12 -7 -12 -23l9 -375q1 -34 2 -102.5t2 -102.5q0 -20 12 -32q26 -29 72 -57q14 -8 27 2q22 14 33 20q16 9 34 16t44.5 16t36.5 12q22 8 41 18q16 9 23 22q16 28 30 62
q5 15 1 20.5t-20 3.5q-37 -4 -80 -14q-16 -3 -94 -22z" />
    <glyph glyph-name="M" unicode="M" horiz-adv-x="558" 
d="M267 429q-29 48 -32 54q-31 63 -119 187q-3 5 -9.5 13t-8.5 10q-6 8 -21 8q-17 -1 -56 -14q-16 -6 -19.5 -13t1.5 -22q5 -13 11 -27t13.5 -31t11.5 -26q1 -3 3 -8t3 -6l-13 -7q-17 -9 -16 -28v-20t1 -20q4 -238 18 -332q8 -66 28 -115q15 -37 58 -64q13 -8 21 5
q28 55 27 99q-2 78 -2 234q0 2 0.5 6.5t0.5 7.5q6 -6 7 -8q4 -6 10 -17t8 -14q22 -37 79 -70q11 -7 20 4q3 3 7 11q20 42 29 64q16 42 46 85l9 10q2 -10 2 -11q1 -18 3.5 -54.5t3.5 -54.5q1 -25 4 -75t4 -75q3 -55 18 -107q5 -15 15 -23q19 -17 24 -20q9 -6 12.5 -5t9.5 11
q22 35 24 91q6 92 9 185q1 48 3.5 144.5t4.5 145.5q0 7 1.5 25.5t0.5 28.5q0 14 7 33q13 27 20 53q7 20 -16 20q-40 0 -108 -29q-6 -2 -15 -15q-2 -3 -5 -10t-5 -10q-30 -43 -57 -90q-6 -10 -76 -114z" />
    <glyph glyph-name="N" unicode="N" horiz-adv-x="482" 
d="M145 324h3q3 -3 3 -5q12 -26 29.5 -56.5t28.5 -48.5t36.5 -56t32.5 -49q5 -8 19.5 -26.5t20.5 -29.5q24 -41 87 -82q13 -9 25 6q2 3 6 11q26 57 29 66q9 24 10 43v91q0 23 1 63.5t1.5 73.5t0.5 62l3 259q0 12 -3 23q-3 10 -6.5 13t-14.5 3q-44 -1 -117 -32
q-19 -8 -15 -34q4 -24 4 -37q1 -15 1 -47q-2 -130 -4 -196l-2 -12q-2 3 -5 8.5t-4 8.5q-44 93 -88 191q-9 20 -24 58t-22 55q-6 13 -22 39q-8 13 -26 13q-37 -3 -77 -17q-28 -10 -41 -17q-17 -8 -15 -27q2 -12 4 -67q2 -36 5 -107.5t5 -107.5q3 -53 11 -120t41 -165
q11 -35 29 -67q4 -9 28 -37q12 -12 19 4q17 38 16 70q0 75 -2 113q-1 18 -4 55.5t-4 56.5z" />
    <glyph glyph-name="O" unicode="O" horiz-adv-x="498" 
d="M481 365v38q0 42 -17 81q-12 26 -35.5 77.5t-34.5 77.5l-10 19q-26 46 -81 57q-56 10 -105 -5q-23 -7 -67 -25q-45 -16 -74 -55.5t-27 -96.5q0 -1 -3 -13q-24 -63 -26 -137q-5 -118 22 -197q22 -63 58 -101q27 -29 57 -54q53 -48 136 -50q58 0 97 42q17 17 29 38
q6 12 17 35.5t13 28.5q55 132 51 240zM140 398q6 72 8 93q4 32 16 45q25 31 66 29q32 -2 43 -27q7 -17 22 -48t21 -43q23 -45 24 -94q4 -114 -28 -186q-3 -7 -10 -19t-9 -15q-5 -10 -18 -7q-64 13 -97 76q-26 48 -34 116q-2 15 -4 80z" />
    <glyph glyph-name="P" unicode="P" horiz-adv-x="510" 
d="M507 487v15q0 5 -1 14t-1.5 16.5t-0.5 14.5q1 50 -32 97q-46 61 -116 67q-58 6 -112 -4q-41 -8 -137 -31q-37 -9 -84 -26q-29 -10 -19 -42l3 -10q8 -21 8 -22q6 -26 26 -74q30 -70 35 -109q4 -23 10 -69t10 -69q3 -14 -8 -21q-12 -9 -4 -21q7 -9 8 -10q10 -6 14 -30
q9 -66 23 -114q15 -53 70 -82q15 -9 24 7q7 11 19 35q5 10 5 32q-1 18 -1.5 52t-0.5 45q0 10 10 13q12 5 36 17q79 35 123 89q40 47 78 134q13 31 13 61q0 9 2 25zM246 311q-1 14 -2.5 39t-1.5 36q-2 78 -30 148l-13 38q31 6 41 7q9 1 24.5 1.5t20.5 0.5q24 3 30 -20
q9 -32 10 -44q2 -28 2 -83q0 -40 -24 -68q-21 -24 -45 -48q-2 -2 -12 -7z" />
    <glyph glyph-name="Q" unicode="Q" horiz-adv-x="578" 
d="M0 350v-37l3 -15q5 -54 26 -100q7 -13 19.5 -40.5t18.5 -41.5q10 -23 32 -67q26 -52 86 -63q49 -9 98 5q81 22 123 56q12 -16 18 -23q28 -26 70 -50q15 -8 23.5 -5.5t16.5 16.5l33 63q1 4 3.5 12.5t4.5 12.5q4 11 -6 19q-3 2 -7.5 6.5t-8.5 8t-8 6.5q-13 10 -38 29.5
t-38 29.5q-8 6 -9 9t2 12q18 55 21 100q6 112 -8 174q-22 106 -83 163q-32 31 -51 46q-41 36 -106 44q-85 9 -134 -56q-11 -13 -17 -26q-35 -79 -39 -88q-30 -77 -38 -142q-1 -11 -3.5 -30t-3.5 -28zM198 577q74 -8 111 -80q28 -57 34 -126q1 -19 1 -58q0 -7 -1 -12
q-3 2 -14 11t-17 14q-18 16 -38 11q-44 -10 -65 -17q-17 -5 -9 -23q6 -11 13 -23q58 -92 82 -121q1 -1 5 -6q-8 -6 -26 -10h-15q-24 0 -30 4t-17 25l-42 86q-25 50 -25 109q0 89 16 137q7 23 23 57q2 5 14 22z" />
    <glyph glyph-name="R" unicode="R" horiz-adv-x="554" 
d="M326 226q21 31 27 42q35 68 55 132q26 78 -8 158q-26 61 -86.5 98t-114.5 35q-18 -1 -34 0q-8 0 -11 4q-4 7 -20 7q-30 0 -75 -15q-3 -1 -19 -7t-24 -10q-20 -10 -14 -32q3 -10 8.5 -30t7.5 -30q16 -54 23 -81q21 -79 34 -223q0 -7 -1 -10q-4 -2 -9 -4t-11.5 -4.5
t-9.5 -3.5q-19 -9 -21 -18.5t12 -24.5q12 -14 40 -38q9 -7 10 -18q2 -24 8 -80q5 -37 20 -68q12 -23 43 -42q1 1 2.5 3t3 3.5t1.5 2.5q18 35 20 63l3 47q4 42 6 65l35 -26q127 -86 219 -133q6 -3 15.5 -9t12.5 -7q17 -8 28 7q4 4 6 10q10 21 28 61q7 17 12 38q3 12 1 17
t-13 10q-10 6 -30 16q-29 15 -87.5 45.5t-87.5 46.5zM182 552q17 -1 45 -15q4 -2 10 -10q42 -69 20 -143q-13 -42 -32 -65q-13 -16 -29 -25q-3 127 -3 131q-3 38 -11 127z" />
    <glyph glyph-name="S" unicode="S" horiz-adv-x="464" 
d="M178 570q5 1 11 1q23 0 65 -18q9 -3 19 -15q30 -41 95 -79l1 -1q14 -6 23 5q7 10 9 14q18 34 28 58q3 6 13 35q8 21 -6 42q-24 34 -50 49q-36 20 -67 34q-44 21 -96 19q-68 -1 -156 -34q-12 -5 -29 -16q-33 -23 -36 -54q-5 -48 4 -84q15 -66 59 -114q35 -40 91 -81
q17 -12 56.5 -39.5t60.5 -42.5q35 -26 41 -64q1 -7 1 -63q0 -14 -8 -23q-21 5 -43 22q-49 38 -85 95q-25 39 -44 74q-10 19 -29 15q-40 -9 -54 -13q-23 -7 -28 -16t1 -32q13 -54 38 -92q48 -78 147 -146q49 -33 109 -31q61 2 89 52q21 39 43 92q9 21 9 88q0 36 -19 69
q-22 38 -57 67q-11 9 -31.5 25t-24.5 19q-72 60 -93 80q-41 38 -57 103z" />
    <glyph glyph-name="T" unicode="T" horiz-adv-x="518" 
d="M317 544q10 2 14 2q72 6 108 7q22 1 30 19l6 12t7 14.5t5 12.5t6.5 17.5t8 21t6.5 18.5q6 19 0.5 26t-25.5 5q-66 -4 -98 -9q-71 -10 -213 -36q-76 -14 -130 -37q-18 -8 -34 -19q-13 -8 -4 -24q6 -8 11 -13l38 -34q17 -15 39 -12q6 1 17 2t16 2l52 6q2 -10 2 -13
q2 -25 5.5 -75.5t5.5 -75.5l3 -35q11 -90 27 -177q17 -89 27 -121q11 -33 52 -62q11 -9 17 4q27 50 28 84q3 105 -12 208q-16 101 -16 267q0 3 0.5 8t0.5 7z" />
    <glyph glyph-name="U" unicode="U" horiz-adv-x="516" 
d="M250 131q-25 13 -42 37q-16 23 -26 60q-17 60 -27 182q-3 31 -8 93t-8 93q-2 31 -13 75q-2 11 -6.5 14t-16.5 3q-13 -1 -61 -15q-27 -9 -30 -36l-6 -70q-11 -143 -2 -244q6 -82 15 -122q17 -70 44 -104q55 -70 125 -102q80 -38 145 19q21 20 35 44q49 86 74 171
q23 84 33 188q12 123 -9 209l-15 71q-2 14 -6 17t-17 3q-42 -1 -125 -32q-18 -7 -22.5 -15.5t-0.5 -28.5q1 -4 8 -31.5t10 -42.5q12 -50 14 -74q10 -113 -15 -232q-15 -73 -38 -115z" />
    <glyph glyph-name="V" unicode="V" horiz-adv-x="432" 
d="M237 325l-7 19q-5 16 -14.5 47t-13.5 46q-3 10 -8.5 28.5t-10 33.5t-8.5 28q-6 21 -17 65t-17 65q-1 6 -3.5 12.5t-6 14.5t-5.5 12q-7 14 -24 12q-29 -1 -81 -19q-14 -5 -18 -11.5t-3 -21.5q2 -16 4.5 -47.5t3.5 -46.5q9 -83 25 -139q48 -170 74 -255q24 -80 44 -117
q12 -20 20 -29q32 -33 76 -57q23 -14 35 8q46 82 54 129q16 105 48 189q50 134 67 221l15 84q10 52 15 79q0 3 0.5 8t0.5 7q-1 14 -15 15h-9q-47 -1 -128 -32q-5 -1 -13 -7q-12 -8 -9 -20q3 -17 -3 -49q-13 -75 -30 -150q-9 -46 -38 -122z" />
    <glyph glyph-name="W" unicode="W" horiz-adv-x="544" 
d="M263 437h3q0 -2 2 -6t2 -6q40 -128 65 -190q4 -9 39 -107q23 -65 27 -74q3 -8 9 -14q36 -32 56 -46q16 -13 26 6q22 50 32 75q5 10 1 26q-4 12 -4 27v77t1 95.5t5 76.5q5 54 11 160q3 45 5 137q0 10 -3.5 13.5t-14.5 3.5q-37 -1 -96 -26q-4 -2 -5 -3q-12 -7 -9 -18
q1 -6 1 -17q1 -26 -0.5 -55t-4 -66.5t-3.5 -55.5l-2 -18l-6 16q-22 62 -38 112q-5 16 -16.5 43t-19.5 50t-12 44q-2 10 -15 10q-39 0 -98 -26q-11 -5 -11 -17q0 -34 -15 -88q-24 -90 -37 -193q0 -2 -2 -8q-4 4 -4 9q-10 56 -14 84q-6 37 -16 111q-4 27 -7 43q-2 9 -4.5 10.5
t-11.5 0.5q-3 -1 -49 -12q-21 -5 -22 -25l-3 -12q-8 -39 -3 -89q11 -139 22 -186q1 -6 9 -47t14 -62q26 -86 32 -130q3 -21 16 -39q25 -32 67 -57q16 -9 26 6l6 9q37 68 33 133v13q1 13 2.5 35.5t3 42t3.5 35.5q6 48 23 167q2 6 4 22z" />
    <glyph glyph-name="X" unicode="X" horiz-adv-x="545" 
d="M388 356l43 58q51 69 80 127q27 50 31 82q1 10 -2 14t-14 4q-14 -1 -59 -12q-39 -10 -67 -44q-26 -31 -76 -93q-6 -6 -9 -10l-10 15q-56 92 -108 154q-12 14 -34 14q-51 -2 -136 -31q-12 -5 -15 -8q-13 -9 -6 -23q10 -15 23 -29q6 -6 24 -25.5t27 -30.5q36 -42 96 -134
q3 -5 29 -44l-41 -53q-94 -119 -140 -228q-2 -5 -21 -40q-7 -10 0 -18q10 -13 15 -17q44 -32 66 -46q17 -10 26.5 -7.5t20.5 19.5l5 8q8 17 24.5 50t24.5 50q26 53 30 59q22 33 68 97q2 4 9 11l13 -14q98 -116 147 -173q13 -16 45 -35q13 -6 20 6q8 12 20 38q7 14 4 31
q-9 40 -21 66q-14 29 -64 109q-11 16 -68 103z" />
    <glyph glyph-name="Y" unicode="Y" horiz-adv-x="419" 
d="M227 505q-47 68 -67 100q-38 62 -60 91q-10 12 -24 11q-27 -3 -66 -22q-13 -7 -9 -20l3 -11q29 -86 60 -138q40 -66 62 -97q27 -37 30 -86q2 -20 5 -63t6 -75.5t8 -62.5q7 -51 18 -102q4 -14 11 -23q22 -22 34 -31q14 -12 22 4q21 45 26 73q10 49 8 109q-1 22 -2 61.5
t-2 72t-2 61.5q-1 25 13 45l9 12q8 11 24.5 32.5t24.5 32.5q42 58 86 170q6 17 9 33q2 11 -2 15.5t-15 3.5q-39 -1 -103 -30q-13 -6 -17 -19q-14 -47 -64 -114z" />
    <glyph glyph-name="Z" unicode="Z" horiz-adv-x="505" 
d="M213 144l4 9q45 79 49 86q34 64 44 78q56 85 113 163q36 51 52 98q2 5 5.5 15t5.5 15q11 42 12 46q3 17 -2 23t-22 5q-6 -1 -16 -1l-111 -6q-58 0 -172 4q-55 3 -113 -27q-26 -14 -9 -38q6 -7 18 -20t16 -18q21 -23 60 -32q76 -15 124 -16q7 0 12 -1l-5 -7.5t-4 -6.5
q-61 -82 -112 -177q-70 -133 -150 -224q-11 -12 -11.5 -21t8.5 -23t14 -18q8 -9 24 -25.5t21 -21.5q20 -20 56 -22q55 -2 163 12q86 10 130 6q14 0 21 11l7 13q4 10 13.5 37t14.5 42q7 16 10 38q3 16 -2 22t-20 5q-62 -2 -93 -5q-20 -2 -57 -7t-50 -6q-8 -1 -24.5 -2.5
t-23.5 -2.5z" />
    <glyph glyph-name="bracketleft" unicode="[" horiz-adv-x="267" 
d="M235 23q-2 1 -6 4t-6 4q-42 18 -77 12q-1 0 -38 -3q-1 5 -1 11q1 12 2 33t2 38.5t2 33.5q8 115 1 173q-4 31 -4 69l-3 188q0 6 0.5 20t0.5 21q5 -1 24 -2t29 -3q42 -6 72 17l18 12q6 4 10 10q8 8 -1 15q-4 4 -9 6q-60 22 -65 23q-22 4 -66 6q-51 4 -70 10q-12 3 -32 5
q-10 1 -13 -1.5t-4 -11.5q-1 -12 -1 -34q0 -8 0.5 -23.5t0.5 -22.5q0 -17 1 -25q0 -16 1 -48t1 -48q0 -116 5 -152q7 -59 1 -159q-4 -64 -4 -145q-1 -27 29 -87q5 -11 16 -9q3 0 8 1t8 1l62 12q59 13 78 25q21 13 28 24z" />
    <glyph glyph-name="backslash" unicode="\" horiz-adv-x="400" 
d="M144 658q5 20 -15 26q-61 19 -86 25q-9 2 -28 2q-10 1 -13 -3t-1 -14q0 -4 2 -10q5 -10 19 -39t22 -44q4 -8 15 -24.5t15 -25.5q17 -34 50 -104t50 -104q70 -139 119 -254q16 -36 50 -106q4 -9 16 -25q11 -14 22 -1q10 12 11 21q7 39 1 66q-18 92 -54 177
q-54 125 -111 249q-13 30 -77 167q-2 4 -4 11.5t-3 9.5z" />
    <glyph glyph-name="bracketright" unicode="]" horiz-adv-x="269" 
d="M29 22q10 -10 12 -11q30 -18 40 -22q13 -5 52 -14q50 -10 76 -14q15 -4 24 11q30 61 28 107q-6 98 -8 152q-2 57 1 102q7 91 7 118q1 40 2.5 118.5t1.5 117.5q0 19 -1 28q-1 12 -13 12q-6 0 -20 -2q-46 -10 -53 -11q-12 -1 -25 -2t-28.5 -2t-24.5 -2q-35 -2 -88 -27
q-22 -10 -3 -25q54 -44 99 -33q2 1 6 1l43 3q0 -8 0.5 -21t0.5 -19q-2 -100 -2 -148q-2 -93 -5 -120q-4 -48 -3 -94q1 -22 2.5 -46.5t3.5 -54.5t3 -46q1 -12 1 -38q-38 3 -40 3q-35 7 -76 -12q-2 -1 -6.5 -4t-6.5 -5z" />
    <glyph glyph-name="underscore" unicode="_" horiz-adv-x="548" 
d="M294 -15q-78 -2 -158 -2q-56 -2 -96 -16q-22 -7 -30 -11q-17 -9 -4 -22q2 -3 34 -29q28 -22 68 -22q124 0 370 -2q18 0 24 14q28 54 32 63q6 20 2 23.5t-21 3.5h-221z" />
    <glyph glyph-name="a" unicode="a" horiz-adv-x="488" 
d="M295 135q12 -41 17 -56q15 -34 21 -41q26 -32 80 -59q16 -7 25 7q29 44 42 82q3 13 -5 22q-6 7 -9 17q-7 21 -16 52q-23 79 -29 219q-1 21 -5 24.5t-24 1.5q-16 -1 -33 8q-63 33 -122 32q-76 -3 -142 -33q-82 -36 -93 -127q-11 -97 42 -195q27 -47 92 -88
q20 -17 39.5 -16t42.5 30q4 4 36 53zM170 157q-2 5 -3 6q-31 67 -23 143q2 8 6 12q14 14 33 18q13 3 39 1.5t41 -6.5q-18 -47 -93 -174z" />
    <glyph glyph-name="b" unicode="b" horiz-adv-x="489" 
d="M223 439l-2 6q0 1 -1.5 14.5t-1.5 20.5q-2 160 8 222q1 13 -2 16.5t-16 3.5q-39 0 -111 -26q-2 0 -4 -2t-4 -2q-8 -6 -9 -16q-4 -45 -3 -91q4 -51 8 -155v-11l-18 -6q-30 -9 -46 -23q-36 -28 -11 -65q24 -36 71 -63q11 -6 19 4q3 3 7 10t6 9q15 -41 33 -117t28 -106
q-3 -2 -9.5 -4.5t-11 -6t-7.5 -9.5q11 -14 13 -15q8 -8 30 -24q44 -30 97 -14q89 26 133 104q20 32 35 67q24 50 27 100q3 40 -26 75q-72 87 -184 100q-16 2 -48 4zM275 97q-1 11 -2.5 34t-2.5 35q-2 26 -8 70q-2 13 -7.5 37t-7.5 32q58 -8 79 -45q10 -18 8 -52
q-8 -65 -52 -108q-2 -2 -4 -2q0 -1 -3 -1z" />
    <glyph glyph-name="c" unicode="c" horiz-adv-x="468" 
d="M354 440q-9 -1 -29 -2t-30 -2q-48 -5 -142 -31q-66 -17 -117 -73q-36 -38 -36 -83q0 -50 16 -95q23 -69 86 -110q28 -18 64 -37q73 -39 158 -2q90 38 128 160q4 10 -3 24q-4 9 -14 8q-11 -2 -41 -8q-6 -2 -9 -7l-51 -60q-5 -5 -15 -13t-12 -10q-18 -16 -43 -4
q-37 18 -54 55q-23 49 -23 102q0 15 15 24q66 42 162 22q18 -4 27.5 -0.5t19.5 18.5q24 36 35 54q9 17 15 34q5 13 2 18.5t-16 9.5l-8 2q-23 6 -85 6z" />
    <glyph glyph-name="d" unicode="d" horiz-adv-x="477" 
d="M377 439q0 2 -0.5 6t-0.5 5q-6 161 -22 240q-3 19 -19 22q-74 18 -113 14q-14 -2 -17 -6t1 -18q10 -35 11 -42q7 -46 19 -140q2 -13 4 -76l-15 -3q-9 -2 -30.5 -7t-33.5 -9q-98 -34 -150 -128q-12 -20 -11 -43q5 -53 26 -88q27 -48 55 -87q34 -49 90 -73q65 -29 112 -13
q41 12 73 56q8 12 -6 18q-4 2 -11 3.5t-9 2.5q7 33 16 110.5t19 118.5q6 -6 8 -9q11 -13 16.5 -13.5t18.5 10.5q22 18 31 29q14 15 25 36q18 38 -17 61q-17 9 -34 15q-6 2 -19 4.5t-17 3.5zM222 96q-2 2 -12 11t-15 15q-43 49 -43 108q1 38 35 59q2 1 44 21q-14 -81 -5 -212
z" />
    <glyph glyph-name="e" unicode="e" horiz-adv-x="484" 
d="M170 142q9 6 38.5 25.5t45.5 31.5q64 45 105 114q28 46 26 85q-2 23 -14 35q-22 23 -54 23q-41 1 -109 -16q-47 -11 -79 -38q-63 -49 -103 -131q-28 -59 -26 -160q1 -34 28 -56q52 -43 114 -62q55 -16 118 12q54 23 116 80q24 24 37 33q19 12 30 31q25 39 31 52
q12 25 -17 25q-49 0 -131 -23q-11 -3 -21 -13q-4 -3 -92 -80q-2 -2 -17 -12q-24 14 -26 44zM169 219q-2 29 10 68q6 21 21 39t27 25.5t38 22.5q2 -2 4 -2q-3 -22 -4 -25q-9 -27 -19 -42q-21 -32 -77 -86z" />
    <glyph glyph-name="f" unicode="f" horiz-adv-x="441" 
d="M0 374v-3q4 -5 13.5 -13t14.5 -13q32 -26 66 -12q3 1 41 12q0 -2 1.5 -7.5t1.5 -8.5q17 -100 50 -205q17 -56 52 -108q21 -29 55 -52q11 -7 18 5q14 22 6 46q-7 21 -20 73q-22 98 -42 259q-2 15 -4 41q44 14 73 14q17 0 51 -4q14 -2 21 9q10 14 13 22q15 32 17 40
q5 16 -3 28t-24 16q-10 3 -20 2q-52 -3 -61 -4q-7 -1 -65 -12q-2 2 -2 3v18q1 34 9.5 49t37.5 32q38 23 79 8q3 -1 46 -21q25 -12 31 -13q12 12 25 51q14 38 -19 68q-21 19 -61 23q-77 4 -168 -35q-46 -21 -74 -67q-33 -57 -30 -114v-46q-7 -4 -14 -7q-7 -4 -23.5 -12.5
t-25.5 -14t-22 -13.5t-24 -16.5t-20 -17.5z" />
    <glyph glyph-name="g" unicode="g" horiz-adv-x="451" 
d="M384 307q2 6 6 17.5t6 17.5q4 18 -12 27q-12 7 -38 21q-42 21 -97 18q-47 -2 -125 -27q-50 -17 -75 -61q-15 -26 -22 -44q-30 -74 -27 -124q4 -60 47 -101q26 -24 72 -53q34 -21 71 -4q73 31 115 72q2 2 10 8q2 -6 2 -7q7 -83 4 -134q-2 -24 -12 -72q-4 -16 -12 -24
q-27 12 -44 32q-28 37 -7 78q1 2 4.5 8t5 11t0.5 10l-10 1q-35 -7 -48 -10q-30 -9 -40 -36q-23 -52 9 -90q40 -47 103 -71q1 -1 4 -1.5t4 -0.5q53 -13 81 29q5 7 15 23q50 86 59 191q5 70 13 210q2 30 -10 71q-3 10 -7 12.5t-15 2.5h-30zM181 97q-33 22 -41 64
q-10 50 10 100q9 23 39 33q50 17 95 -14l-8 -16q0 -3 8 -16q3 -7 10 -20t9 -17q4 -9 -3 -17q-63 -68 -119 -97z" />
    <glyph glyph-name="h" unicode="h" horiz-adv-x="413" 
d="M185 391q1 8 1.5 16t1 18t0.5 15l12 183q0 11 2 32t2 31q1 10 -2 13t-13 4h-3q-44 -1 -119 -28q-1 -1 -5 -3q-13 -6 -13 -21q1 -9 1 -26q-2 -162 -2 -244q0 -6 -0.5 -19.5t-0.5 -20.5q0 -12 -10 -21q-16 -16 -31 -34q-10 -15 2 -29q11 -15 24 -23q11 -8 11 -22
q-2 -82 10 -159q9 -67 69 -99q17 -8 25 6q10 19 17 35q4 8 1 14q-6 16 -4 64l9 151l3 42q48 25 159 31l-3 -15q-4 -19 -11.5 -55t-10.5 -51q-7 -37 -11 -132q0 -4 1 -12t1 -13q2 -32 45 -58q9 -6 16 3q12 16 17 24q30 52 47 129q25 117 52 210q3 11 8 52q1 24 -23 31
q-17 5 -30 5q-113 3 -201 -14q-5 -1 -20 -4.5t-24 -5.5z" />
    <glyph glyph-name="i" unicode="i" horiz-adv-x="186" 
d="M144 663q-45 -2 -120 -29l-6 -3t-5 -3q-7 -5 -9 -17q0 -2 -3 -38q-5 -38 19 -57q26 -21 54 -39q13 -8 20 -6t15 15q23 36 57 137q0 1 1 5t1 5q4 19 -0.5 25t-23.5 5zM25 234q5 -90 24 -161q6 -23 17 -43q8 -18 40 -38q10 -6 17 5q20 34 22 55q6 86 6 88q1 17 2 51.5
t2 51.5q1 38 11 81q4 19 16 107q1 12 -2.5 16t-15.5 3q-42 0 -122 -28q-1 0 -5 -2q-9 -5 -11 -9.5t0 -14.5q7 -54 3 -94q-2 -24 -4 -68z" />
    <glyph glyph-name="j" unicode="j" horiz-adv-x="309" 
d="M212 662q-44 -1 -109 -24q-20 -7 -23.5 -15.5t6.5 -27.5q0 -1 0.5 -1t0.5 -1q3 -9 12 -28.5t14 -34.5t8 -30q8 -38 15 -48.5t46 -34.5l3 -2q11 -6 16.5 -4.5t12.5 12.5q28 47 34 82q8 60 0 88q-8 25 -12 51q-2 13 -7 16t-17 2zM108 25q-8 2 -10 2q-34 -6 -50 -11
q-23 -6 -36 -29t-12 -48.5t17 -45.5q10 -12 16 -17q30 -28 71 -49q12 -6 26 -9q52 -13 80 28l9 14q32 51 49 111q15 54 21 164q4 78 8 117q4 41 -9 88q-4 11 -8 14t-17 3q-47 0 -118 -26q-18 -6 -19 -14t9 -19q22 -32 25 -65q1 -25 6 -97t7 -111q3 -47 -8 -97
q-6 -29 -17 -41q-28 12 -46 36q-25 32 -6 72q12 22 12 30z" />
    <glyph glyph-name="k" unicode="k" horiz-adv-x="365" 
d="M151 216q3 3 7 5q12 7 79 43q34 18 102 52q1 0 2.5 1l3 2t2.5 1q21 14 7 34q-16 25 -57 51q-11 8 -24 2q-28 -13 -34 -16q-74 -38 -110 -57q-1 -1 -12 -3v13q2 49 2 58q-1 34 13 158q5 43 5 48q-4 40 -42 86q-1 2 -5 4q-12 7 -20 -1q-46 -52 -52 -87q-10 -51 -16 -136
q-3 -46 -1 -140q7 -138 14 -182q11 -70 16 -97q7 -30 15 -55q9 -26 33 -26q4 -1 12 -2.5t12 -1.5q13 -1 18.5 4t4.5 18q-4 33 -5 52v53l4 -2t3.5 -2t2.5 -1q14 -10 82 -56q6 -4 17 -11.5t20 -13.5t17 -11q11 -7 22 -7q14 2 44 10q15 4 9 20q0 2 -6 16q-19 34 -52 63
q-84 80 -133 114z" />
    <glyph glyph-name="l" unicode="l" horiz-adv-x="217" 
d="M176 318q-1 19 -2.5 58.5t-2.5 58.5l-12 192q-6 75 -6 77q-1 11 -5 14t-15 3q-38 -1 -117 -28l-4 -3q-14 -9 -11 -25q6 -50 8 -75q2 -19 6 -66t7 -73q14 -122 19 -212q2 -45 8 -137q4 -53 47 -94q12 -11 29 -21q10 -6 16 4q9 13 15 29q11 26 8 53q-2 18 0 38z" />
    <glyph glyph-name="m" unicode="m" horiz-adv-x="459" 
d="M269 353q-1 1 -4 1v12q0 22 -21 33q-6 3 -19 11.5t-20 11.5q-16 10 -25 13q-18 7 -27 -9q-6 -10 -16 -29.5t-13 -24.5l-17 -33q-4 16 -6 45q-2 20 -4 60q-2 23 -11 29q-9 8 -39 26q-14 7 -20 -8q-8 -17 -10 -28q-10 -53 -14 -138q-1 -21 -1 -61v-60q-4 -122 2 -182
q3 -25 12 -47q8 -21 31 -12l18 9q7 4 22 13.5t22 14.5q13 7 16 24q16 74 25 111q1 5 5 15q4 -7 6 -20q6 -60 17 -94q12 -33 42 -18q9 4 24.5 13.5t22.5 12.5q31 16 39 53q2 9 10 32h3l6 -30q14 -63 19 -83q8 -31 38 -16q13 6 57 32q12 7 14.5 13.5t-1.5 19.5q-2 7 -5 21
t-5 21q-18 83 -21 168q-2 35 -2 105q0 19 -14 27l-60 34l-15 6q-16 3 -22 -8q-6 -8 -8 -12q-13 -28 -25 -59z" />
    <glyph glyph-name="n" unicode="n" horiz-adv-x="472" 
d="M281 220q1 -1 4 -1l3 -14q30 -108 40 -142q10 -31 23 -41q26 -20 64 -44q18 -10 29 8q12 18 20 35q6 12 16 38q3 7 0 15l-24 64q-26 74 -41 163q-8 57 -14 89q-1 12 -6 15t-18 3q-19 0 -77 -14q-25 -7 -47 -30q-58 -68 -96 -145q-1 -3 -7 -11q-1 3 -4 15q-9 35 -25 105
q-17 74 -30 100q-5 10 -16 10q-28 -1 -62 -15q-10 -3 -12 -15q-1 -5 -1 -15q12 -124 12 -128q3 -24 9.5 -53t11.5 -47.5t15.5 -53.5t14.5 -49q3 -14 12 -21q40 -28 60 -40q15 -10 27 5q9 9 16 23q31 56 91 168z" />
    <glyph glyph-name="o" unicode="o" horiz-adv-x="500" 
d="M247 445q-58 -5 -69 -8q-43 -11 -98 -31q-30 -9 -55 -38q-36 -39 -20 -92q3 -9 1 -21q-20 -100 45 -175q42 -51 101 -80q82 -40 160 2q73 41 115 113q14 25 38 79q15 33 18 79q3 34 -18 59q-24 29 -62 57q-79 59 -156 56zM217 315q51 0 104 -36q24 -17 24 -46
q0 -33 -24 -69q-20 -30 -59 -62q-8 -7 -20 -5q-54 12 -82 58q-32 51 -26 114q3 23 32 36q9 5 29 9q7 1 22 1z" />
    <glyph glyph-name="p" unicode="p" horiz-adv-x="476" 
d="M178 -10q4 0 10 0.5t8 0.5q60 7 105 24q67 27 93 57q29 33 49 59q39 56 12 119q-7 15 -17 32q-49 78 -137 91q-96 13 -201 -6q-28 -5 -82 -21q-14 -4 -17 -9.5t2 -18.5q10 -32 10 -78q0 -101 9 -161q5 -30 9 -94q5 -71 23 -179q8 -51 40 -76l1 -2q1 -2 2 -3q5 -8 15.5 -8
t16.5 7q25 36 27 53q6 31 14 100q6 74 8 113zM173 99q-6 10 -2 86t4 85q18 2 24 2q8 -1 24 -2.5t23 -1.5q18 -3 28 -20q22 -37 13 -78q-6 -18 -13 -24q-39 -32 -101 -47z" />
    <glyph glyph-name="q" unicode="q" horiz-adv-x="476" 
d="M291 -8q1 -2 1 -5.5t1 -4.5q11 -138 19 -178q8 -45 32 -74q7 -9 21 -7q5 0 8 3t6 7t5 6q24 22 30 56q8 44 11 67q8 64 10 96q2 15 4.5 54.5t5.5 61.5q11 91 8 158q-2 62 8 92q5 14 2.5 18.5t-16.5 9.5q-1 0 -3 1t-3 1q-134 39 -263 23q-69 -8 -112 -47q-33 -30 -53 -75
q-32 -69 14 -127q25 -31 47 -55q12 -14 30 -25q56 -32 101 -41q14 -3 86 -15zM290 274q1 -19 4 -56t3.5 -56t-1.5 -57q-10 0 -14 1q-36 8 -73 31q-21 12 -28 29t-3 47q1 7 19 46q3 6 9 8q39 12 84 7z" />
    <glyph glyph-name="r" unicode="r" horiz-adv-x="422" 
d="M175 352q-2 8 -2 9q-10 47 -8 102v20q-2 11 -12 11h-11q-46 -1 -121 -28q-2 0 -4 -1t-4.5 -2.5t-3.5 -2.5q-11 -7 -8 -20q2 -10 5.5 -30.5t5.5 -30.5q9 -37 26.5 -111t26.5 -111q24 -91 31 -116q11 -34 33 -62q19 -24 48 -39q9 -5 15 4q24 41 24 71q0 98 3 131
q5 52 17 94q3 11 14 15q5 2 15.5 6.5t17.5 6.5q50 17 61 19q23 3 32 22q22 40 31 60q7 12 10 29q6 20 -15 20q-32 -2 -47 -5q-60 -11 -165 -55q-2 -1 -4.5 -2l-5 -2t-5.5 -2z" />
    <glyph glyph-name="s" unicode="s" horiz-adv-x="468" 
d="M355 313q10 26 13 39q9 43 -27 69q-58 44 -140 39q-52 -5 -119 -29q-42 -16 -61 -26q-34 -19 -13 -54q14 -20 24 -30q54 -48 83 -71q84 -68 175 -96q16 -5 40 -16q10 -4 11 -11t-8 -14q-14 -11 -27 -12q-52 -6 -79 -4q-49 3 -63 47l-6 16q-6 14 -20 13q-43 -1 -90 -25
q-20 -8 -15 -32q8 -34 30 -58q31 -33 69 -57q29 -19 66 -19q64 0 124 18q41 13 72 35q19 14 27 31q19 41 23 52q14 34 6 57.5t-41 40.5q-38 21 -84 37q-88 30 -164 94q-6 6 -10 11q10 2 24 6q68 12 106 2q40 -10 51 -39q5 -14 23 -14z" />
    <glyph glyph-name="t" unicode="t" horiz-adv-x="455" 
d="M147 436l-55 -9q-38 -6 -76 -21q-26 -9 -6 -29q36 -38 80 -42q8 -1 24.5 -2t24.5 -2h12q1 -4 1 -9q4 -89 7 -131q1 -26 5 -73t5 -62q3 -50 51 -81l1 -1q9 -6 13.5 -7t8.5 2.5t9 12.5q0 2 2 4q26 45 31 125q8 90 6 212v20q29 5 31 5q42 8 64 9q22 0 31 17q4 9 11.5 26.5
l13.5 31.5t11 26q4 10 6 24q1 13 -13 14q-6 0 -9 -1q-46 -1 -113 -21q-7 -1 -29 -8q-2 14 -7 48q-8 46 -6 69q1 11 -3.5 15t-15.5 4q-35 -1 -71 -14q-32 -12 -47 -19q-19 -8 -18 -28l6 -47q2 -10 7 -30.5t7 -27.5z" />
    <glyph glyph-name="u" unicode="u" horiz-adv-x="421" 
d="M151 98q-2 3 -9 14.5t-10 17.5q-16 35 -23 82q-11 79 -2 155q2 13 4 75q1 8 -1.5 10.5t-10.5 1.5q-15 -1 -32 -6q-26 -8 -32 -14t-13 -33q-15 -58 -21 -161q-4 -48 10 -112q14 -62 60 -98l36 -27q8 -5 26 -13q46 -16 79 21q11 14 21 32q5 9 13.5 27t10.5 22q4 6 6 10
q17 -32 24 -42q21 -29 68 -59q19 -12 30 8q10 18 26 54q3 7 8 25q0 10 -3 15q-22 22 -26 67q-10 121 -11 143q-2 26 -1 60t11 59q1 1 1 3q1 10 -1.5 13.5t-13.5 3.5q-35 0 -95 -25q-13 -5 -16 -19q-8 -25 -10 -40q-4 -33 -12 -53l-84 -205q-4 -6 -7 -12z" />
    <glyph glyph-name="v" unicode="v" horiz-adv-x="373" 
d="M183 226h-3l-1 -1l-6 12q-34 83 -61 145q-3 9 -9.5 27t-10.5 27q-3 10 -13 10q-29 -1 -68 -17q-13 -5 -11 -17q2 -33 5 -43q16 -59 36 -121q33 -106 61 -157q12 -26 12 -28q7 -29 35 -49q20 -16 29 -21q17 -11 26 -9t20 19q3 6 4 7q3 7 9.5 20l12 24t9.5 21
q43 105 72 220q25 98 34 118q3 6 5 18q3 16 -14 16q-49 0 -118 -29q-13 -5 -14 -16l-8 -32z" />
    <glyph glyph-name="w" unicode="w" horiz-adv-x="560" 
d="M269 192h3q1 -2 3.5 -6t3.5 -6l57 -108q33 -63 116 -106q21 -11 34 8q41 62 47 98q14 83 18 128q5 51 5 214q0 13 -3.5 16.5t-16.5 2.5q-29 0 -81 -14q-28 -9 -34 -12q-13 -4 -13 -20q1 -31 1 -93v-36q-5 1 -6 4l-21 44q-42 88 -62 131q-10 20 -34 19q-33 -2 -97 -22
q-3 -1 -14 -6q-7 -4 -6 -13q5 -27 -6 -84q-1 -5 -2.5 -13t-1.5 -12q-4 4 -9 16q-23 52 -52 77q-12 11 -24 8q-42 -8 -63 -14q-15 -5 -9 -20q2 -4 5 -10.5t5 -9.5q19 -44 23 -55q10 -27 16 -61q19 -91 37 -145q16 -44 27 -57t54 -40q2 0 4 -2q24 -12 38 8q46 68 50 118
q1 7 2 20.5t2 20.5q1 5 2 16t2 16z" />
    <glyph glyph-name="x" unicode="x" horiz-adv-x="472" 
d="M241 122q4 -4 8 -10q37 -42 71 -83q20 -22 42 -32q12 -5 19 6q6 10 16 32q10 21 4 40q-9 36 -28 63q-4 6 -47 65q7 6 37 33.5t47 40.5q12 8 16 14q18 32 34 62q4 9 5 17q1 12 -11 13q-6 0 -9 -1q-41 0 -108 -23q-10 -4 -21 -13q-8 -8 -48 -50q-2 -2 -10 -8q-10 14 -12 18
q-29 48 -82 117q-14 15 -30 15q-40 -1 -114 -25q-18 -7 -19.5 -14.5t11.5 -21.5l3 -4q52 -54 75 -84q9 -14 62 -76q12 -12 17 -18q-3 -7 -7 -9q-56 -67 -86 -117q-12 -20 -16 -31q-9 -19 7 -31q17 -14 33 -23q8 -5 12 -4t12 9l26 30q30 38 46 56z" />
    <glyph glyph-name="y" unicode="y" horiz-adv-x="379" 
d="M204 15q-4 2 -5 2q-37 0 -70 -18q-11 -6 -17 -17q-16 -20 -16 -48t16 -48q41 -54 108 -76q30 -10 50.5 -3t37.5 33q18 26 35 63q34 77 41 191q2 47 8 141q5 54 -8 94q-4 13 -8 16t-18 2q-46 -1 -116 -25q-8 -3 -14 -9q-3 -2 -5 -9q-1 -3 -2 -9.5t-2 -9.5q-22 -50 -32 -75
q-11 -26 -32 -52q-5 -5 -9 -8q-6 16 -6 21q-5 43 -5 52q0 70 16 134q5 17 11 58q1 12 -2.5 16t-15.5 4q-2 0 -7 -0.5t-8 -0.5q-32 -3 -104 -26q-8 -4 -11 -6q-9 -6 -9 -19q1 -19 0 -40q-11 -73 2 -184q0 -8 4 -22q6 -32 30 -50q17 -14 55 -40q12 -8 32 -8q55 0 92 38
q8 8 34 41l9 10q9 -99 5 -154q0 -8 -11 -72q0 -1 -11 -25q-40 15 -56 49q-13 30 2 58q12 22 12 31z" />
    <glyph glyph-name="z" unicode="z" horiz-adv-x="391" 
d="M155 96q2 2 4 5.5t4 4.5q75 92 96 115q65 73 88 154q3 9 5 29q0 18 -20 20q-11 1 -31 -1q-68 -4 -181 -29q-23 -5 -54 -19q-19 -8 -5 -24q12 -14 19 -20q14 -12 28 -12q52 2 78 4h19q-3 -3 -7 -8.5t-6 -7.5q-75 -83 -170 -209q-6 -7 -16 -23q-14 -25 5 -45q1 -1 46 -43
q12 -11 33 -11q30 0 90 10q77 15 143 12q21 0 28 18q6 13 28 67q5 12 6 24q4 19 -16 19q-15 0 -31 -3q-38 -4 -114 -14q-12 -2 -34.5 -6.5t-34.5 -6.5z" />
    <glyph glyph-name="braceleft" unicode="{" horiz-adv-x="228" 
d="M4 379q13 -17 14 -18q37 -26 43 -30q27 -15 32 -50q4 -39 -13 -78l-18 -43q-16 -37 -14 -81q2 -28 19 -48q29 -36 75 -56q25 -10 56 0q11 3 20 16q12 16 -9 22l-12 3q-1 1 -14.5 5.5t-19.5 8.5q-39 22 -39 65q0 28 10 52q10 22 16 33q33 70 35 113q1 19 -6 39
q-14 29 -37 51q7 12 8 14q12 20 16 30q14 33 9 55.5t-31 47.5q-10 10 -30 36q-6 8 -9 22q0 9 5 14q36 32 55 38q7 2 8 5q15 24 30 53q7 13 -9 13q-21 0 -32 -2q-56 -11 -75 -23q-43 -28 -77 -70q-8 -10 -8 -16q-7 -40 12 -63q29 -36 41 -47q20 -18 17 -43q-3 -32 -25 -45
l-25 -13q-10 -6 -18 -10z" />
    <glyph glyph-name="bar" unicode="|" horiz-adv-x="120" 
d="M66 -40q2 2 5.5 4.5t4.5 4.5q17 30 19 45q1 8 3.5 31.5t3.5 36.5q2 24 4 71.5t3 71.5q10 163 9 284q-1 0 0 54v54q0 13 -3 15.5t-16 2.5q-29 -1 -85 -21q-15 -5 -14 -21v-18t1 -18q0 -154 1 -185q2 -49 14 -269q0 -4 12 -100q2 -12 7 -17q4 -4 31 -26z" />
    <glyph glyph-name="braceright" unicode="}" horiz-adv-x="229" 
d="M217 378q-7 5 -17 11l-29 15q-16 11 -21 33q-5 36 18 55q17 14 41 48q31 44 -5 85q-20 22 -52 48q-41 34 -121 38q-10 1 -13.5 -3.5t1.5 -13.5q6 -12 27 -47q3 -4 8 -6q16 -5 55 -37q11 -8 6 -22q-4 -12 -8 -16q-13 -18 -30 -36q-3 -4 -11 -11.5t-11 -11.5
q-11 -12 -9 -29q0 -37 17 -67q3 -6 9 -15.5t7 -12.5q-11 -11 -18 -21q-26 -36 -25 -60q2 -48 17 -81q18 -40 28 -60q16 -34 16 -67q0 -41 -35 -62q-10 -6 -36 -15q-3 -1 -19 -6q-9 -3 -6 -13q4 -19 24 -24q31 -10 58 3q40 17 70 52q17 18 18 37q5 42 -4 69q-11 34 -27 70
q-16 43 -11 79q5 32 31 47q10 6 44 31q2 2 6.5 7.5t6.5 8.5z" />
    <glyph glyph-name="asciitilde" unicode="~" horiz-adv-x="350" 
d="M24 678q26 33 31 38q33 30 72 3l37 -25q20 -12 43 -9q45 4 81.5 34t49.5 73q4 14 -1.5 20t-20.5 4q-27 -5 -41 -27q-12 -21 -42 -40q-23 -14 -43 0q-4 3 -12 8t-11 7q-26 17 -57 16q-32 -2 -60 -12q-32 -11 -47 -44q-7 -14 -0.5 -27.5t21.5 -18.5z" />
    <glyph glyph-name="exclamdown" unicode="&#xa1;" horiz-adv-x="158" 
d="M30 421q37 1 95 23q4 2 7 4q10 8 4 18q-3 4 -9 10l-52 37q-11 7 -25.5 3t-19.5 -15q-21 -39 -26 -51q-7 -17 -1.5 -23.5t27.5 -5.5zM28 -110q36 1 106 25q2 1 5 3t4 2q11 8 7 19q-11 26 -11 76q-2 136 -13 232q-3 31 -11 70q-7 30 -34 52q-13 11 -20 -5q-15 -29 -16 -57
q-10 -138 -13 -207q-6 -94 -18 -151q-6 -28 -7 -43q-3 -16 15 -16h6z" />
    <glyph glyph-name="dieresis" unicode="&#xa8;" horiz-adv-x="516" 
d="M481 746q-38 0 -95 -21q-11 -4 -15 -8.5t-2.5 -10.5t9.5 -15q29 -35 76 -59q16 -9 27 8l32 63q3 7 3 15q2 6 -3 11q-16 21 -32 17zM135 741q-40 -1 -99 -25q-10 -4 -23 -15q-16 -17 0 -30q13 -11 41 -31q15 -11 35 -4q2 1 12 4t15 6t9 9q25 47 32 65q6 13 2 18t-19 4
q-1 0 -2.5 -0.5t-2.5 -0.5z" />
    <glyph glyph-name="guillemotleft" unicode="&#xab;" horiz-adv-x="615" 
d="M141 274q14 12 17 15q5 5 28 26t35 33q81 83 104 121l16 28q8 16 -6 25q-5 5 -11 8q-79 35 -128 37q-19 1 -27 -14q-20 -36 -57 -82q-10 -12 -29 -35t-29 -35q-16 -19 -36 -36q-26 -23 -15 -54q0 -1 0.5 -3l1 -4t1.5 -3q14 -38 35 -86q2 -5 10 -15q6 -6 60 -69t83 -95
q24 -31 49 -58q12 -14 24 -23q16 -10 28 2q16 15 18 25t-6 25q-14 31 -28 53l-97 147q-7 11 -20.5 33.5t-20.5 33.5zM406 274q14 12 17 15q5 5 28 26t35 33q81 83 104 121l16 28q8 16 -6 25q-5 5 -11 8q-79 35 -128 37q-19 1 -27 -14q-23 -42 -57 -82q-10 -12 -29 -35
t-29 -35q-17 -19 -36 -36q-25 -23 -15 -54q0 -1 0.5 -3l1 -4t1.5 -3q14 -38 35 -86q1 -3 11 -15q94 -110 142 -164q24 -31 49 -58q12 -14 25 -23q15 -10 27 2q16 15 18 25t-5 25q-18 36 -29 53l-97 147q-7 11 -20.5 33.5t-20.5 33.5z" />
    <glyph glyph-name="acute" unicode="&#xb4;" horiz-adv-x="164" 
d="M127 820q-24 -1 -68 -15q-5 -1 -23 -8q-9 -5 -9 -15q-4 -36 -9 -54q-6 -26 -2 -36.5t26 -25.5q1 -1 5 -3q12 -7 21 3q29 34 59 92q11 19 17 38q6 16 3 20.5t-20 3.5z" />
    <glyph glyph-name="periodcentered" unicode="&#xb7;" horiz-adv-x="176" 
d="M115 396q-45 -1 -99 -21q-27 -11 -5 -32q26 -23 55 -46q15 -11 34 -22q21 -12 33 9q22 42 32 63q4 12 5 18q1 9 -6 13q-24 14 -49 18z" />
    <glyph glyph-name="guillemotright" unicode="&#xbb;" horiz-adv-x="614" 
d="M202 274q-7 6 -16 15q-5 5 -28 26t-35 33q-4 5 -18 18.5t-19.5 20t-17.5 19t-19 21t-15.5 20t-15.5 22.5q-3 6 -9 15.5t-7 12.5q-6 16 6 25q8 6 12 8q79 35 128 37q18 1 26 -14q26 -44 58 -82q10 -12 29 -35.5t29 -34.5q15 -17 35 -36q25 -21 16 -54l-3 -10
q-4 -11 -16 -40.5t-19 -45.5q-3 -5 -11 -15q-40 -47 -142 -164q-4 -4 -21.5 -25.5t-27.5 -32.5t-25 -23q-15 -10 -28 2q-16 15 -18 25t6 25q12 26 29 53q14 22 30 46.5t35.5 54.5t30.5 46q2 4 41 67zM467 274l-16 15q-5 5 -28 26t-35 33q-81 83 -104 121q-2 3 -8 13l-9 15
q-6 16 6 25q8 6 12 8q79 35 128 37q18 1 26 -14q26 -44 58 -82q10 -12 29 -35.5t29 -34.5q17 -19 36 -36q24 -21 15 -54l-3 -10q-5 -11 -16.5 -40.5t-18.5 -45.5q-1 -3 -11 -15q-40 -47 -142 -164q-24 -31 -49 -58q-10 -11 -25 -23q-15 -10 -28 2q-16 15 -18 25t6 25
q12 26 29 53q14 22 30 46.5t35.5 54.5t30.5 46q2 4 41 67z" />
    <glyph glyph-name="questiondown" unicode="&#xbf;" horiz-adv-x="600" 
d="M175 483q33 0 82 19q12 4 16.5 8.5t2 10.5t-12.5 15q-37 33 -93 56q-17 8 -27 -9l-24 -48q-3 -5 -5 -16q-3 -12 6 -18q34 -20 55 -18zM219 450l-5 -2q0 -14 1 -16q1 -3 4.5 -14.5t5.5 -17.5q7 -22 8 -28q5 -30 -15 -47q-3 -2 -6.5 -6t-6.5 -6.5t-7 -6t-7 -5.5
q-12 -9 -35.5 -25.5t-33.5 -23.5q-47 -38 -58 -48q-20 -18 -47 -74q-35 -78 3 -151q28 -54 79 -58q97 -6 189 27q58 23 70 87q4 28 -9 46q-20 27 -64 50q-12 6 -19 -7q-22 -35 -22 -63q0 -16 -4 -22t-19 -10q-13 -5 -27 -6q-8 -1 -23 0t-22 0q-12 0 -20 14q-10 20 -12 64
q-1 21 9 43q16 30 54 61q65 53 95 90q14 18 20 28q9 14 5 29q-6 25 -13 34q-11 14 -49 52q-3 3 -10.5 7t-8.5 5z" />
    <glyph glyph-name="tonos" unicode="&#x384;" horiz-adv-x="164" 
d="M136 820q-24 -1 -68 -15q-5 -1 -23 -8q-9 -5 -9 -15q-4 -36 -9 -54q-6 -26 -2 -36.5t26 -25.5q1 -1 5 -3q12 -7 21 3q29 34 59 92q11 19 17 38q6 16 3 20.5t-20 3.5z" />
    <glyph glyph-name="dieresistonos" unicode="&#x385;" horiz-adv-x="520" 
d="M330 820q-24 -1 -68 -15q-5 -1 -23 -8q-9 -5 -9 -15q-4 -36 -9 -54q-6 -26 -2 -36.5t26 -25.5q1 -1 5 -3q12 -7 21 3q29 34 59 92q11 19 17 38q6 16 3 20.5t-20 3.5zM481 746q-38 0 -95 -21q-11 -4 -15 -8.5t-2.5 -10.5t9.5 -15q29 -35 76 -59q16 -9 27 8l32 63q3 7 3 15
q2 6 -3 11q-16 21 -32 17zM135 741q-40 -1 -99 -25q-10 -4 -23 -15q-16 -17 0 -30q13 -11 41 -31q15 -11 35 -4q2 1 12 4t15 6t9 9q25 47 32 65q6 13 2 18t-19 4q-1 0 -2.5 -0.5t-2.5 -0.5z" />
    <glyph glyph-name="Alphatonos" unicode="&#x386;" horiz-adv-x="486" 
d="M176 820q-24 -1 -68 -15q-5 -1 -23 -8q-9 -5 -9 -15q-4 -36 -9 -54q-6 -26 -2 -36.5t26 -25.5q1 -1 5 -3q12 -7 21 3q29 34 59 92q11 19 17 38q6 16 3 20.5t-20 3.5zM283 191q23 -57 45 -111q6 -15 9 -18q30 -32 77 -56q10 -7 21 4q5 5 8 11l24 45q13 27 13 39t-12 40
q-6 15 -17.5 43t-16.5 40q-6 13 2 27q9 16 16 40q4 13 0 17.5t-17 4.5h-23q-3 11 -10 44q-23 110 -40 262q-3 22 -11 66q-3 11 -8.5 14.5t-17.5 3.5q-47 -1 -115 -27q-12 -5 -18 -16q-9 -15 -23 -49q-16 -41 -47.5 -124t-46.5 -125q-6 -15 -12 -32t-13 -38t-11 -32
q0 -1 -3.5 -12t-8.5 -16q-2 -1 -2 -7l-3 -29q-11 -48 -17 -80q-9 -47 -1 -82q6 -26 16 -34q28 -22 43 -31q14 -8 22 5q29 48 33 81q7 37 13 62q6 24 19 64q26 5 73.5 5t59.5 1zM256 299q-14 -1 -71 -8q13 39 50 117q12 -58 21 -109z" />
    <glyph glyph-name="Epsilontonos" unicode="&#x388;" horiz-adv-x="481" 
d="M35 820q-24 -1 -68 -15q-5 -1 -23 -8q-9 -5 -9 -15q-4 -36 -9 -54q-6 -26 -2 -36.5t26 -25.5q1 -1 5 -3q12 -7 21 3q29 34 59 92q11 19 17 38q6 16 3 20.5t-20 3.5zM109 54q-7 -4 -23 -12q-17 -9 -27 -17q-18 -15 -3 -32t24 -24q28 -25 59 -17q14 3 41.5 8.5t40.5 8.5
q105 26 187 31q17 0 24 18q21 48 38 91q3 5 5 19q3 22 -18 22q-34 0 -58 -5q-69 -12 -182 -48q-10 -4 -15 -5l-3 164q95 23 108 26q14 3 29 3q14 -1 19 2t11 15q9 18 34 81q4 11 6 24q2 11 -2 15.5t-15 3.5q-31 -3 -61 -9q-47 -9 -124 -37l-18 -6q-2 16 -10 70t-10 83
q44 6 62 8q65 9 85 10q24 1 34 22l30 71q5 16 8 28q2 13 -2 18t-17 5q-37 -1 -73 -6q-22 -3 -65.5 -9t-65.5 -8q-77 -10 -129 -33q-18 -8 -26 -14q-12 -9 -7 -26l12 -49q1 -5 2.5 -14.5t2.5 -14.5l45 -233q5 -22 12.5 -66.5t11.5 -66.5q2 -12 23 -95z" />
    <glyph glyph-name="Etatonos" unicode="&#x389;" 
d="M-1 820q-24 -1 -68 -15q-5 -1 -23 -8q-9 -5 -9 -15q-4 -36 -9 -54q-6 -26 -2 -36.5t26 -25.5q1 -1 5 -3q12 -7 21 3q29 34 59 92q11 19 17 38q6 16 3 20.5t-20 3.5zM144 416l-3 15q-6 56 -10 89q-13 93 -29 147q-2 7 -17 42q-6 13 -19 10l-38 -8q-23 -6 -24 -28
q-3 -23 -3 -43q-2 -158 4 -236q8 -106 8 -196q-1 -42 1 -122q0 -44 25 -68q12 -10 43 -33q16 -11 26 7q20 38 28 58q7 20 10 45q1 10 1.5 21.5t1 25.5t0.5 21v131q0 11 1 17l148 12q0 -6 0.5 -16t0.5 -15v-125q0 -14 0.5 -41.5t1.5 -41.5q2 -43 23 -63q10 -9 47 -37
q14 -10 23 6q39 67 40 115q0 33 0.5 98t1.5 98q0 5 -0.5 15t-0.5 17.5t1 14.5q2 7 5.5 14t8.5 15t7 13q16 34 21 51q4 13 0.5 17.5t-16.5 4.5q-12 0 -36 -2q-1 9 -3.5 27.5t-4.5 28.5q-13 92 -28 148q-2 7 -17 42q-7 15 -22 12l-40 -10q-16 -4 -19 -20q-4 -24 -4 -36
q0 -33 0.5 -101t0.5 -102q0 -2 -0.5 -6t-0.5 -6q-96 -14 -144 -22z" />
    <glyph glyph-name="Iotatonos" unicode="&#x38a;" horiz-adv-x="162" 
d="M25 820q-24 -1 -68 -15q-5 -1 -23 -8q-9 -5 -9 -15q-4 -36 -9 -54q-6 -26 -2 -36.5t26 -25.5q1 -1 5 -3q12 -7 21 3q29 34 59 92q11 19 17 38q6 16 3 20.5t-20 3.5zM0 254h1v-76q0 -58 11 -105q8 -29 27 -50q23 -23 50 -38q7 -4 11 -4.5t7.5 2t7.5 9.5t25 46q12 27 12 62
q-5 142 -5 172q-1 63 9 185q7 82 -7 200q-1 20 -6 40q-3 14 -8.5 18t-19.5 3q-18 -2 -52 -12q-24 -6 -32 -28q-8 -20 -9 -30q-4 -38 -6 -75q-3 -118 -3 -119q-2 -33 -6.5 -99.5t-6.5 -100.5z" />
    <glyph glyph-name="Omicrontonos" unicode="&#x38c;" horiz-adv-x="498" 
d="M41 820q-24 -1 -68 -15q-5 -1 -23 -8q-9 -5 -9 -15q-4 -36 -9 -54q-6 -26 -2 -36.5t26 -25.5q1 -1 5 -3q12 -7 21 3q29 34 59 92q11 19 17 38q6 16 3 20.5t-20 3.5zM481 365v38q0 42 -17 81q-12 26 -35.5 77.5t-34.5 77.5l-10 19q-26 46 -81 57q-56 10 -105 -5
q-23 -7 -67 -25q-45 -16 -74 -55.5t-27 -96.5q0 -1 -3 -13q-24 -63 -26 -137q-5 -118 22 -197q22 -63 58 -101q27 -29 57 -54q53 -48 136 -50q58 0 97 42q17 17 29 38q6 12 17 35.5t13 28.5q55 132 51 240zM140 398q6 72 8 93q4 32 16 45q25 31 66 29q32 -2 43 -27
q7 -17 22 -48t21 -43q23 -45 24 -94q4 -114 -28 -186q-3 -7 -10 -19t-9 -15q-5 -10 -18 -7q-64 13 -97 76q-26 48 -34 116q-2 15 -4 80z" />
    <glyph glyph-name="Upsilontonos" unicode="&#x38e;" horiz-adv-x="459" 
d="M7 820q-24 -1 -68 -15q-5 -1 -23 -8q-9 -5 -9 -15q-4 -36 -9 -54q-6 -26 -2 -36.5t26 -25.5q1 -1 5 -3q12 -7 21 3q29 34 59 92q11 19 17 38q6 16 3 20.5t-20 3.5zM227 505q-47 68 -67 100q-38 62 -60 91q-10 12 -24 11q-27 -3 -66 -22q-13 -7 -9 -20l3 -11
q29 -86 60 -138q40 -66 62 -97q27 -37 30 -86q2 -20 5 -63t6 -75.5t8 -62.5q7 -51 18 -102q4 -14 11 -23q22 -22 34 -31q14 -12 22 4q21 45 26 73q10 49 8 109q-1 22 -2 61.5t-2 72t-2 61.5q-1 25 13 45l9 12q8 11 24.5 32.5t24.5 32.5q42 58 86 170q6 17 9 33q2 11 -2 15.5
t-15 3.5q-39 -1 -103 -30q-13 -6 -17 -19q-14 -47 -64 -114z" />
    <glyph glyph-name="Omegatonos" unicode="&#x38f;" horiz-adv-x="536" 
d="M65 820q-24 -1 -68 -15q-5 -1 -23 -8q-9 -5 -9 -15q-4 -36 -9 -54q-6 -26 -2 -36.5t26 -25.5q1 -1 5 -3q12 -7 21 3q29 34 59 92q11 19 17 38q6 16 3 20.5t-20 3.5zM45 413q-1 -71 52 -132q46 -51 98 -77q84 -42 162 2t120 123q16 30 33 70q15 32 18 76q3 35 -20 62
q-55 64 -130 95q-19 9 -43 12q-43 8 -103 -1q-46 -7 -110 -34q-20 -8 -34 -21q-51 -39 -42 -93q0 -3 2 -9t2 -9q1 -5 1 -15zM178 453v6q0 40 41 53q73 21 150 -32q20 -15 20 -41q1 -35 -24 -72q-22 -33 -59 -62q-8 -7 -18 -4q-55 11 -83 57q-28 48 -27 95zM390 3v-2
q8 -1 24 -1t24 -1q18 0 21 1q13 2 17 9q26 38 35 71q5 18 -4.5 33t-27.5 19q-1 0 -29 3q-68 1 -157 -9q-137 -18 -185 -31t-88 -28q-33 -14 -8 -38q33 -31 72 -51q11 -7 24 -5q25 3 74.5 9.5t74.5 9.5q22 2 66.5 5.5t66.5 5.5z" />
    <glyph glyph-name="iotadieresistonos" unicode="&#x390;" horiz-adv-x="150" 
d="M158 740q-24 -1 -68 -15q-5 -1 -23 -8q-9 -5 -9 -15q-4 -36 -9 -54q-6 -26 -2 -36.5t26 -25.5q1 -1 5 -3q12 -7 21 3q29 34 59 92q11 19 17 38q6 16 3 20.5t-20 3.5zM309 666q-38 0 -95 -21q-11 -4 -15 -8.5t-2.5 -10.5t9.5 -15q29 -35 76 -59q16 -9 27 8l32 63q3 7 3 15
q2 6 -3 11q-16 21 -32 17zM-37 661q-40 -1 -99 -25q-10 -4 -23 -15q-16 -17 0 -30q13 -11 41 -31q15 -11 35 -4q2 1 12 4t15 6t9 9q25 47 32 65q6 13 2 18t-19 4q-1 0 -2.5 -0.5t-2.5 -0.5zM5 192l9 -93q6 -44 19 -67q7 -12 17 -23q8 -10 21.5 -8.5t20.5 13.5q9 21 11 29
q3 15 7 45q1 14 4.5 57t6.5 66q2 17 6 60.5t8.5 74.5t13.5 60q7 19 -16 19q-42 -1 -111 -26q-1 -1 -4 -2.5t-4 -1.5q-10 -6 -9 -18q2 -34 2 -51q2 -40 1 -61q0 -10 -3 -73z" />
    <glyph glyph-name="Alpha" unicode="&#x391;" horiz-adv-x="486" 
d="M283 191q23 -57 45 -111q6 -15 9 -18q30 -32 77 -56q10 -7 21 4q5 5 8 11l24 45q13 27 13 39t-12 40q-6 15 -17.5 43t-16.5 40q-6 13 2 27q9 16 16 40q4 13 0 17.5t-17 4.5h-23q-3 11 -10 44q-23 110 -40 262q-3 22 -11 66q-3 11 -8.5 14.5t-17.5 3.5q-47 -1 -115 -27
q-12 -5 -18 -16q-9 -15 -23 -49q-16 -41 -47.5 -124t-46.5 -125q-6 -15 -12 -32t-13 -38t-11 -32q0 -1 -3.5 -12t-8.5 -16q-2 -1 -2 -7l-3 -29q-11 -48 -17 -80q-9 -47 -1 -82q6 -26 16 -34q28 -22 43 -31q14 -8 22 5q29 48 33 81q7 37 13 62q6 24 19 64q26 5 73.5 5t59.5 1
zM256 299q-14 -1 -71 -8q13 39 50 117q12 -58 21 -109z" />
    <glyph glyph-name="Beta" unicode="&#x392;" horiz-adv-x="487" 
d="M302 702h-56q-10 -2 -15 -2q-92 -7 -164 -31q-22 -6 -49 -20q-23 -11 -15 -36q1 -5 4.5 -14.5t4.5 -11.5q10 -30 14 -45q8 -28 22 -82q29 -114 31 -133q8 -69 31 -147q6 -21 16 -63l-6 -3q-4 -2 -29 -10.5t-38 -13.5q-15 -5 -25 -12q-19 -14 -7 -34q6 -10 11 -15
q42 -38 63 -56q16 -15 38 -7q10 3 40 11.5t47 14.5q54 20 85 36q82 41 119 110q33 61 50 121q14 42 2 93q-17 78 -97 115l-32 12l6 15q4 12 14 36t14 36q12 36 5 73q-5 33 -36 49q-6 3 -19 6.5t-16 4.5zM170 556l63 3q-3 -14 -19 -29.5t-35 -22.5q-3 23 -9 49zM206 140
q-4 130 -7 202q76 2 111 -12q10 -3 11 -12q19 -68 -16 -110q-36 -42 -85 -64q-4 -2 -10 -4h-4z" />
    <glyph glyph-name="Gamma" unicode="&#x393;" horiz-adv-x="409" 
d="M167 570q6 1 12 1q23 -1 68.5 -1.5t68.5 -0.5t32 14q44 74 47 80q9 18 4.5 25t-24.5 7l-160 3q-104 2 -176 -18q-18 -5 -31 -12q-12 -6 -6 -18q11 -29 15 -80q2 -18 4.5 -54.5t4.5 -54.5q3 -23 9.5 -67.5t8.5 -65.5q3 -27 6 -57t6.5 -66.5t5.5 -56.5q9 -92 38 -142
q13 -24 30 -31q4 2 5 3q33 27 40 79q8 66 4 198l-12 240v75z" />
    <glyph glyph-name="uni0394" unicode="&#x394;" horiz-adv-x="512" 
d="M506 94q-1 3 -2.5 8t-2.5 8q-48 138 -58 185q-6 24 -15.5 68t-18 79.5t-17.5 67.5q-37 118 -43 133q-1 2 -19 35q-12 17 -32 13q-32 -6 -65 -20q-12 -5 -36 -17q-14 -7 -14 -20q-2 -21 -8 -63q-13 -107 -41 -201q-24 -76 -49 -176q-4 -16 -8 -34.5t-8.5 -40.5t-7.5 -34
q-1 -6 -9 -9q-22 -10 -33 -16q-18 -9 -19 -17.5t15 -21.5q29 -22 73 -41q10 -5 22 -3q24 3 72.5 9.5t73.5 9.5q121 13 188 -4q14 -4 20.5 -0.5t11.5 16.5q16 40 23 60q3 8 7 26zM263 408q8 -33 21 -92t25.5 -107t27.5 -90q-71 -7 -181 -16z" />
    <glyph glyph-name="Epsilon" unicode="&#x395;" horiz-adv-x="481" 
d="M109 54q-7 -4 -23 -12q-17 -9 -27 -17q-18 -15 -3 -32t24 -24q28 -25 59 -17q14 3 41.5 8.5t40.5 8.5q105 26 187 31q17 0 24 18q21 48 38 91q3 5 5 19q3 22 -18 22q-34 0 -58 -5q-69 -12 -182 -48q-10 -4 -15 -5l-3 164q95 23 108 26q14 3 29 3q14 -1 19 2t11 15
q9 18 34 81q4 11 6 24q2 11 -2 15.5t-15 3.5q-31 -3 -61 -9q-47 -9 -124 -37l-18 -6q-2 16 -10 70t-10 83q44 6 62 8q65 9 85 10q24 1 34 22l30 71q5 16 8 28q2 13 -2 18t-17 5q-37 -1 -73 -6q-22 -3 -65.5 -9t-65.5 -8q-77 -10 -129 -33q-18 -8 -26 -14q-12 -9 -7 -26
l12 -49q1 -5 2.5 -14.5t2.5 -14.5l45 -233q5 -22 12.5 -66.5t11.5 -66.5q2 -12 23 -95z" />
    <glyph glyph-name="Zeta" unicode="&#x396;" horiz-adv-x="505" 
d="M213 144l4 9q45 79 49 86q34 64 44 78q56 85 113 163q36 51 52 98q2 5 5.5 15t5.5 15q11 42 12 46q3 17 -2 23t-22 5q-6 -1 -16 -1l-111 -6q-58 0 -172 4q-55 3 -113 -27q-26 -14 -9 -38q6 -7 18 -20t16 -18q21 -23 60 -32q76 -15 124 -16q7 0 12 -1l-5 -7.5t-4 -6.5
q-61 -82 -112 -177q-70 -133 -150 -224q-11 -12 -11.5 -21t8.5 -23t14 -18q8 -9 24 -25.5t21 -21.5q20 -20 56 -22q55 -2 163 12q86 10 130 6q14 0 21 11l7 13q4 10 13.5 37t14.5 42q7 16 10 38q3 16 -2 22t-20 5q-62 -2 -93 -5q-20 -2 -57 -7t-50 -6q-8 -1 -24.5 -2.5
t-23.5 -2.5z" />
    <glyph glyph-name="Eta" unicode="&#x397;" 
d="M144 416l-3 15q-6 56 -10 89q-13 93 -29 147q-2 7 -17 42q-6 13 -19 10l-38 -8q-23 -6 -24 -28q-3 -23 -3 -43q-2 -158 4 -236q8 -106 8 -196q-1 -42 1 -122q0 -44 25 -68q12 -10 43 -33q16 -11 26 7q20 38 28 58q7 20 10 45q1 10 1.5 21.5t1 25.5t0.5 21v131q0 11 1 17
l148 12q0 -6 0.5 -16t0.5 -15v-125q0 -14 0.5 -41.5t1.5 -41.5q2 -43 23 -63q10 -9 47 -37q14 -10 23 6q39 67 40 115q0 33 0.5 98t1.5 98q0 5 -0.5 15t-0.5 17.5t1 14.5q2 7 5.5 14t8.5 15t7 13q16 34 21 51q4 13 0.5 17.5t-16.5 4.5q-12 0 -36 -2q-1 9 -3.5 27.5
t-4.5 28.5q-13 92 -28 148q-2 7 -17 42q-7 15 -22 12l-40 -10q-16 -4 -19 -20q-4 -24 -4 -36q0 -33 0.5 -101t0.5 -102q0 -2 -0.5 -6t-0.5 -6q-96 -14 -144 -22z" />
    <glyph glyph-name="Theta" unicode="&#x398;" horiz-adv-x="488" 
d="M481 367q7 73 -32 151q-7 14 -14 29.5t-15 34.5t-13 29q-14 30 -22 44q-26 48 -83 59q-55 9 -104 -5q-14 -4 -70 -26q-44 -18 -71.5 -57t-26.5 -93q0 -7 -3 -14q-24 -63 -26 -138q-5 -118 22 -197q22 -63 58 -100q18 -18 56 -54q56 -50 138 -50q56 0 95 40q17 17 30 41
q9 16 29 63q56 130 52 243zM340 351q-124 22 -198 0q0 78 1 93q1 30 10 70q4 18 21.5 32.5t36.5 16.5q2 0 6 0.5t6 0.5q26 0 33 -4.5t19 -27.5q5 -10 13.5 -28t16 -33t13.5 -28q11 -26 19 -60q0 -1 3 -32zM155 264l20 -4q28 -6 106 -22q21 -4 32 16q18 33 19 35l4 7
q3 0 4 -1q-2 -13 -4 -41q-6 -45 -27 -95l-16 -27q-6 -10 -17 -7q-51 11 -80 49q-26 32 -41 90z" />
    <glyph glyph-name="Iota" unicode="&#x399;" horiz-adv-x="162" 
d="M0 254h1v-76q0 -58 11 -105q8 -29 27 -50q23 -23 50 -38q7 -4 11 -4.5t7.5 2t7.5 9.5t25 46q12 27 12 62q-5 142 -5 172q-1 63 9 185q7 82 -7 200q-1 20 -6 40q-3 14 -8.5 18t-19.5 3q-18 -2 -52 -12q-24 -6 -32 -28q-8 -20 -9 -30q-4 -38 -6 -75q-3 -118 -3 -119
q-2 -33 -6.5 -99.5t-6.5 -100.5z" />
    <glyph glyph-name="Kappa" unicode="&#x39a;" horiz-adv-x="409" 
d="M124 345q-1 1 -3 1q-1 3 -1 10q-2 104 -2 157v50q-1 26 -21 74q-15 37 -44 8q-9 -10 -25 -29t-22 -25q-6 -7 -6 -22q0 -25 -0.5 -75.5t-0.5 -76.5q0 -29 2 -87q6 -101 15 -141q6 -27 15.5 -76t13.5 -66q5 -21 19 -47q3 -10 14 -15q19 -9 37 -15q13 -4 19 10q2 8 2 14
q2 40 1 59q0 16 -1 34t-2.5 40t-2.5 34q0 21 1 27q28 -21 45 -36q23 -20 65 -76q30 -42 50 -59q21 -17 33 -17q32 0 62 3q13 1 15 16q1 15 -8 37q-15 33 -46 74q-66 88 -108 125q-14 14 -23 21q5 8 15 22q60 93 73 110q44 60 92 156q14 26 0 43q-30 42 -39 52q-23 26 -40 -4
q-10 -14 -18 -32q-30 -63 -59 -105q-24 -34 -87 -127q-20 -30 -30 -46z" />
    <glyph glyph-name="Lambda" unicode="&#x39b;" horiz-adv-x="435" 
d="M189 391h3q6 -39 6 -41q36 -198 55 -264q3 -8 3 -15q2 -23 21 -36q40 -31 69 -49q25 -16 40 11q13 22 36 68q16 29 5 62q-15 47 -39 171q-3 17 -30 166l-36 200q-1 10 -7 30q-8 22 -31 21q-41 0 -117 -26q-21 -8 -21 -24q0 -2 -2 -4.5t-2 -3.5q-21 -55 -23 -62
q-38 -128 -56 -191q-32 -124 -35 -136q-7 -29 -23 -131q-7 -50 -4 -91q1 -26 20 -44.5t46 -25.5q33 42 36 75q3 29 21 107q35 144 60 219q1 3 5 14z" />
    <glyph glyph-name="Mu" unicode="&#x39c;" horiz-adv-x="558" 
d="M267 429q-29 48 -32 54q-31 63 -119 187q-3 5 -9.5 13t-8.5 10q-6 8 -21 8q-17 -1 -56 -14q-16 -6 -19.5 -13t1.5 -22q5 -13 11 -27t13.5 -31t11.5 -26q1 -3 3 -8t3 -6l-13 -7q-17 -9 -16 -28v-20t1 -20q4 -238 18 -332q8 -66 28 -115q15 -37 58 -64q13 -8 21 5
q28 55 27 99q-2 78 -2 234q0 2 0.5 6.5t0.5 7.5q6 -6 7 -8q4 -6 10 -17t8 -14q22 -37 79 -70q11 -7 20 4q3 3 7 11q20 42 29 64q16 42 46 85l9 10q2 -10 2 -11q1 -18 3.5 -54.5t3.5 -54.5q1 -25 4 -75t4 -75q3 -55 18 -107q5 -15 15 -23q19 -17 24 -20q9 -6 12.5 -5t9.5 11
q22 35 24 91q6 92 9 185q1 48 3.5 144.5t4.5 145.5q0 7 1.5 25.5t0.5 28.5q0 14 7 33q13 27 20 53q7 20 -16 20q-40 0 -108 -29q-6 -2 -15 -15q-2 -3 -5 -10t-5 -10q-30 -43 -57 -90q-6 -10 -76 -114z" />
    <glyph glyph-name="Nu" unicode="&#x39d;" horiz-adv-x="482" 
d="M145 324h3q3 -3 3 -5q12 -26 29.5 -56.5t28.5 -48.5t36.5 -56t32.5 -49q5 -8 19.5 -26.5t20.5 -29.5q24 -41 87 -82q13 -9 25 6q2 3 6 11q26 57 29 66q9 24 10 43v91q0 23 1 63.5t1.5 73.5t0.5 62l3 259q0 12 -3 23q-3 10 -6.5 13t-14.5 3q-44 -1 -117 -32
q-19 -8 -15 -34q4 -24 4 -37q1 -15 1 -47q-2 -130 -4 -196l-2 -12q-2 3 -5 8.5t-4 8.5q-44 93 -88 191q-9 20 -24 58t-22 55q-6 13 -22 39q-8 13 -26 13q-37 -3 -77 -17q-28 -10 -41 -17q-17 -8 -15 -27q2 -12 4 -67q2 -36 5 -107.5t5 -107.5q3 -53 11 -120t41 -165
q11 -35 29 -67q4 -9 28 -37q12 -12 19 4q17 38 16 70q0 75 -2 113q-1 18 -4 55.5t-4 56.5z" />
    <glyph glyph-name="Xi" unicode="&#x39e;" horiz-adv-x="450" 
d="M234 468v2q88 2 134 2q22 -1 31 19q24 50 35 76q6 13 9 29q3 18 -15 19q-17 2 -34 0q-56 0 -166 -2q-60 0 -90 -2q-51 -4 -112 -31q-27 -12 -10 -38l2 -2q26 -36 60 -59q10 -7 19 -7zM326 361h-22q-101 7 -178 -16q-43 -13 -110 -37q-27 -10 -8 -32q5 -7 36 -37
q20 -20 51 -17q70 7 89 7q20 0 133 -5q15 -1 52 -5q19 -1 29 16l12 22q3 8 9 21.5t10.5 25t7.5 22.5q10 25 -19 27q-58 6 -92 8zM263 0q21 0 59 -2q28 -1 40 24q9 17 19 40q6 14 9 28q6 24 -20 27q-79 6 -126 0q-22 -2 -62.5 -7t-52.5 -6q-27 -3 -69 -18q-12 -5 -16.5 -9.5
t-3 -11t9.5 -15.5q14 -16 21 -23q25 -27 60 -27q38 -2 57 -1q13 0 38 0.5t37 0.5z" />
    <glyph glyph-name="Omicron" unicode="&#x39f;" horiz-adv-x="498" 
d="M481 365v38q0 42 -17 81q-12 26 -35.5 77.5t-34.5 77.5l-10 19q-26 46 -81 57q-56 10 -105 -5q-23 -7 -67 -25q-45 -16 -74 -55.5t-27 -96.5q0 -1 -3 -13q-24 -63 -26 -137q-5 -118 22 -197q22 -63 58 -101q27 -29 57 -54q53 -48 136 -50q58 0 97 42q17 17 29 38
q6 12 17 35.5t13 28.5q55 132 51 240zM140 398q6 72 8 93q4 32 16 45q25 31 66 29q32 -2 43 -27q7 -17 22 -48t21 -43q23 -45 24 -94q4 -114 -28 -186q-3 -7 -10 -19t-9 -15q-5 -10 -18 -7q-64 13 -97 76q-26 48 -34 116q-2 15 -4 80z" />
    <glyph glyph-name="Pi" unicode="&#x3a0;" horiz-adv-x="483" 
d="M319 529v-18q0 -15 -1 -43.5t-1.5 -51.5t-0.5 -43q0 -76 3 -154q4 -90 12 -135q11 -61 70 -90q12 -6 18 4q31 49 29 83q-2 24 0 48q1 29 4.5 87.5t5.5 87.5q8 128 11 191q6 98 8 147q1 16 -14 19q-4 0 -11.5 0.5t-11.5 1.5q-11 0 -45.5 0.5t-53.5 1.5q-42 3 -122 27
q-38 10 -57 11q-59 1 -144 -32q-29 -12 -8 -38q15 -19 55 -47l13 -10q-12 -4 -21 -9q-19 -7 -20 -23q-7 -47 -7 -60q0 -24 2 -80.5t1 -87.5q-1 -97 6 -194q1 -15 11 -101q2 -14 13 -22q7 -5 14.5 -10l16.5 -11t14 -9q8 -6 14 4q27 38 30 67q3 19 10 100q2 22 4 67t3 67
q2 44 8 134l3 118q0 4 2 11.5t2 11.5q75 -20 135 -20z" />
    <glyph glyph-name="Rho" unicode="&#x3a1;" horiz-adv-x="510" 
d="M507 487v15q0 5 -1 14t-1.5 16.5t-0.5 14.5q1 50 -32 97q-46 61 -116 67q-58 6 -112 -4q-41 -8 -137 -31q-37 -9 -84 -26q-29 -10 -19 -42l3 -10q8 -21 8 -22q6 -26 26 -74q30 -70 35 -109q4 -23 10 -69t10 -69q3 -14 -8 -21q-12 -9 -4 -21q7 -9 8 -10q10 -6 14 -30
q9 -66 23 -114q15 -53 70 -82q15 -9 24 7q7 11 19 35q5 10 5 32q-1 18 -1.5 52t-0.5 45q0 10 10 13q12 5 36 17q79 35 123 89q40 47 78 134q13 31 13 61q0 9 2 25zM246 311q-1 14 -2.5 39t-1.5 36q-2 78 -30 148l-13 38q31 6 41 7q9 1 24.5 1.5t20.5 0.5q24 3 30 -20
q9 -32 10 -44q2 -28 2 -83q0 -40 -24 -68q-21 -24 -45 -48q-2 -2 -12 -7z" />
    <glyph glyph-name="Sigma" unicode="&#x3a3;" horiz-adv-x="614" 
d="M219 112l-1 4q10 10 16 14q80 72 122 107q61 51 105 135q7 13 12 29t-11 25q-10 6 -15 8q-56 24 -136 73q-2 1 -8 7l19 3q17 2 38.5 5t40.5 5q16 2 46 4.5t46 3.5q30 4 41 21q8 11 21.5 33.5t15.5 25.5q8 13 1.5 28t-23.5 18q-36 6 -56 6q-43 2 -132 -10
q-95 -12 -251 -50q-32 -8 -47 -13q-7 -2 -19 -10q-12 -7 -7 -19q6 -16 11 -23q36 -55 92 -97q32 -24 42.5 -34.5t44.5 -49.5q2 -3 8 -5.5t8 -3.5q-43 -37 -55 -50q-20 -21 -76 -90t-98 -107q-1 -1 -4 -3.5t-4 -3.5q-10 -11 -4 -24l7 -14q21 -30 55 -61q10 -9 24 -9
q45 -2 58 -1q74 7 222 23q10 1 19.5 4.5t22 9.5t17.5 8q3 1 5 6q26 41 29 47q6 13 -7 15q-69 14 -183 12q-18 0 -52 -2z" />
    <glyph glyph-name="Tau" unicode="&#x3a4;" horiz-adv-x="518" 
d="M317 544q10 2 14 2q72 6 108 7q22 1 30 19l6 12t7 14.5t5 12.5t6.5 17.5t8 21t6.5 18.5q6 19 0.5 26t-25.5 5q-66 -4 -98 -9q-71 -10 -213 -36q-76 -14 -130 -37q-18 -8 -34 -19q-13 -8 -4 -24q6 -8 11 -13l38 -34q17 -15 39 -12q6 1 17 2t16 2l52 6q2 -10 2 -13
q2 -25 5.5 -75.5t5.5 -75.5l3 -35q11 -90 27 -177q17 -89 27 -121q11 -33 52 -62q11 -9 17 4q27 50 28 84q3 105 -12 208q-16 101 -16 267q0 3 0.5 8t0.5 7z" />
    <glyph glyph-name="Upsilon" unicode="&#x3a5;" horiz-adv-x="459" 
d="M227 505q-47 68 -67 100q-38 62 -60 91q-10 12 -24 11q-27 -3 -66 -22q-13 -7 -9 -20l3 -11q29 -86 60 -138q40 -66 62 -97q27 -37 30 -86q2 -20 5 -63t6 -75.5t8 -62.5q7 -51 18 -102q4 -14 11 -23q22 -22 34 -31q14 -12 22 4q21 45 26 73q10 49 8 109q-1 22 -2 61.5
t-2 72t-2 61.5q-1 25 13 45l9 12q8 11 24.5 32.5t24.5 32.5q42 58 86 170q6 17 9 33q2 11 -2 15.5t-15 3.5q-39 -1 -103 -30q-13 -6 -17 -19q-14 -47 -64 -114z" />
    <glyph glyph-name="Phi" unicode="&#x3a6;" horiz-adv-x="515" 
d="M507 538q3 -49 -12 -88q-17 -43 -34 -78q-16 -34 -47 -60q-34 -31 -73 -36l-6 -49q-4 -43 -32 -195q-8 -36 -23 -56q-17 4 -30 27q-19 34 -20 72v85q1 37 1 112v10q-2 0 -5.5 1t-5.5 2q-100 28 -179 111q-29 31 -37 63q-16 64 25 113q40 47 96 76q14 8 30 15.5t36 16.5
t32 14q-4 23 21 33q58 24 90 27q1 0 5 0.5t6 0.5q10 0 13.5 -3t3.5 -13q0 -7 -0.5 -20.5t-0.5 -20.5v-21q66 -34 72 -38q40 -23 62 -63q11 -18 12 -38zM233 387v183q-16 0 -53 -13q-24 -9 -48 -15q-26 -7 -24 -33q0 -25 16 -47q35 -50 104 -76q2 0 5 1zM357 382
q50 56 43 127q-4 39 -45 46l-6 -178l4 2z" />
    <glyph glyph-name="Chi" unicode="&#x3a7;" horiz-adv-x="545" 
d="M388 356l43 58q51 69 80 127q27 50 31 82q1 10 -2 14t-14 4q-14 -1 -59 -12q-39 -10 -67 -44q-26 -31 -76 -93q-6 -6 -9 -10l-10 15q-56 92 -108 154q-12 14 -34 14q-51 -2 -136 -31q-12 -5 -15 -8q-13 -9 -6 -23q10 -15 23 -29q6 -6 24 -25.5t27 -30.5q36 -42 96 -134
q3 -5 29 -44l-41 -53q-94 -119 -140 -228q-2 -5 -21 -40q-7 -10 0 -18q10 -13 15 -17q44 -32 66 -46q17 -10 26.5 -7.5t20.5 19.5l5 8q8 17 24.5 50t24.5 50q26 53 30 59q22 33 68 97q2 4 9 11l13 -14q98 -116 147 -173q13 -16 45 -35q13 -6 20 6q8 12 20 38q7 14 4 31
q-9 40 -21 66q-14 29 -64 109q-11 16 -68 103z" />
    <glyph glyph-name="Psi" unicode="&#x3a8;" horiz-adv-x="486" 
d="M285 212q89 36 139 131q13 24 29 61q37 81 29 178q-2 42 -35 98q-9 14 -25 11q-39 -5 -49 -8q-52 -14 -76 -31v31q0 13 -3.5 16t-16.5 3q-40 -1 -107 -28q-17 -7 -16 -28q3 -74 7 -215v-16q-5 2 -5 4q-23 47 -26 77q-3 33 -5 99v99q0 10 -3 12.5t-14 2.5q-28 -1 -80 -21
q-14 -6 -17 -21q0 -3 -2 -12.5t-2 -14.5q-5 -110 -5 -131q-1 -100 62 -189q32 -45 94 -86q9 -6 10 -16q0 -24 3 -48q7 -88 19 -142q6 -31 40 -53q11 -7 15 4q16 29 20 48q7 34 10 79q4 38 10 106zM300 637q18 -28 20 -32q40 -73 20 -175q-8 -36 -45 -80l-2 -1l-4 -2l6 290h5
z" />
    <glyph glyph-name="uni03A9" unicode="&#x3a9;" horiz-adv-x="536" 
d="M45 413q-1 -71 52 -132q46 -51 98 -77q84 -42 162 2t120 123q16 30 33 70q15 32 18 76q3 35 -20 62q-55 64 -130 95q-19 9 -43 12q-43 8 -103 -1q-46 -7 -110 -34q-20 -8 -34 -21q-51 -39 -42 -93q0 -3 2 -9t2 -9q1 -5 1 -15zM178 453v6q0 40 41 53q73 21 150 -32
q20 -15 20 -41q1 -35 -24 -72q-22 -33 -59 -62q-8 -7 -18 -4q-55 11 -83 57q-28 48 -27 95zM390 3v-2q8 -1 24 -1t24 -1q18 0 21 1q13 2 17 9q26 38 35 71q5 18 -4.5 33t-27.5 19q-1 0 -29 3q-68 1 -157 -9q-137 -18 -185 -31t-88 -28q-33 -14 -8 -38q33 -31 72 -51
q11 -7 24 -5q25 3 74.5 9.5t74.5 9.5q22 2 66.5 5.5t66.5 5.5z" />
    <glyph glyph-name="Iotadieresis" unicode="&#x3aa;" horiz-adv-x="162" 
d="M300 818q-38 0 -95 -21q-11 -4 -15 -8.5t-2.5 -10.5t9.5 -15q29 -35 76 -59q16 -9 27 8l32 63q3 7 3 15q2 6 -3 11q-16 21 -32 17zM-46 813q-40 -1 -99 -25q-10 -4 -23 -15q-16 -17 0 -30q13 -11 41 -31q15 -11 35 -4q2 1 12 4t15 6t9 9q25 47 32 65q6 13 2 18t-19 4
q-1 0 -2.5 -0.5t-2.5 -0.5zM0 254h1v-76q0 -58 11 -105q8 -29 27 -50q23 -23 50 -38q7 -4 11 -4.5t7.5 2t7.5 9.5t25 46q12 27 12 62q-5 142 -5 172q-1 63 9 185q7 82 -7 200q-1 20 -6 40q-3 14 -8.5 18t-19.5 3q-18 -2 -52 -12q-24 -6 -32 -28q-8 -20 -9 -30q-4 -38 -6 -75
q-3 -118 -3 -119q-2 -33 -6.5 -99.5t-6.5 -100.5z" />
    <glyph glyph-name="Upsilondieresis" unicode="&#x3ab;" horiz-adv-x="459" 
d="M455 857q-38 0 -95 -21q-11 -4 -15 -8.5t-2.5 -10.5t9.5 -15q29 -35 76 -59q16 -9 27 8l32 63q3 8 3 15q2 6 -3 11q-16 21 -32 17zM109 852q-40 -1 -99 -25q-10 -4 -23 -15q-16 -17 0 -30q13 -11 41 -31q15 -11 35 -4q2 1 12 4t15 6t9 9q25 47 32 65q6 13 2 18t-19 4
q-1 0 -2.5 -0.5t-2.5 -0.5zM227 505q-47 68 -67 100q-38 62 -60 91q-10 12 -24 11q-27 -3 -66 -22q-13 -7 -9 -20l3 -11q29 -86 60 -138q40 -66 62 -97q27 -37 30 -86q2 -20 5 -63t6 -75.5t8 -62.5q7 -51 18 -102q4 -14 11 -23q22 -22 34 -31q14 -12 22 4q21 45 26 73
q10 49 8 109q-1 22 -2 61.5t-2 72t-2 61.5q-1 25 13 45l9 12q8 11 24.5 32.5t24.5 32.5q42 58 86 170q6 17 9 33q2 11 -2 15.5t-15 3.5q-39 -1 -103 -30q-13 -6 -17 -19q-14 -47 -64 -114z" />
    <glyph glyph-name="alphatonos" unicode="&#x3ac;" horiz-adv-x="477" 
d="M326 740q-24 -1 -68 -15q-5 -1 -23 -8q-9 -5 -9 -15q-4 -36 -9 -54q-6 -26 -2 -36.5t26 -25.5q1 -1 5 -3q12 -7 21 3q29 34 59 92q11 19 17 38q6 16 3 20.5t-20 3.5zM295 135q12 -41 17 -56q15 -34 21 -41q26 -32 80 -59q16 -7 25 7q29 44 42 82q3 13 -5 22q-6 7 -9 17
q-7 21 -16 52q-23 79 -29 219q-1 21 -5 24.5t-24 1.5q-16 -1 -33 8q-63 33 -122 32q-76 -3 -142 -33q-82 -36 -93 -127q-11 -97 42 -195q27 -47 92 -88q20 -17 39.5 -16t42.5 30q4 4 36 53zM170 157q-2 5 -3 6q-31 67 -23 143q2 8 6 12q14 14 33 18q13 3 39 1.5t41 -6.5
q-18 -47 -93 -174z" />
    <glyph glyph-name="epsilontonos" unicode="&#x3ad;" horiz-adv-x="423" 
d="M300 740q-24 -1 -68 -15q-5 -1 -23 -8q-9 -5 -9 -15q-4 -36 -9 -54q-6 -26 -2 -36.5t26 -25.5q1 -1 5 -3q12 -7 21 3q29 34 59 92q11 19 17 38q6 16 3 20.5t-20 3.5zM416 434q0 15 1 22q-18 24 -55 31q-77 11 -163 -13q-56 -16 -80 -32q-35 -25 -68 -62q-26 -28 -39 -48
q-27 -40 5 -75q1 -1 34 -31q6 -5 17 -13.5t14 -10.5l-36 -53q-16 -25 -16 -62q2 -29 19 -46q19 -18 42 -36q29 -25 74 -15q125 27 191 127q11 18 11 33q-6 2 -8 2h-10q-50 -7 -83 -35q-29 -28 -65 -44q-32 -14 -49 8q-8 10 -7.5 27.5t10.5 27.5q37 42 78 47q28 4 33.5 8
t21.5 31q14 22 23 44q10 22 -15 22q-17 0 -53 -4q-39 -6 -77 11q-14 6 -17 16q48 50 77 62q22 11 48 9q4 0 12 -0.5t13 -0.5q12 0 24 -9q18 -14 26 -18q15 -8 26 5q5 8 6 11q6 11 17.5 32.5t17.5 31.5z" />
    <glyph glyph-name="etatonos" unicode="&#x3ae;" horiz-adv-x="414" 
d="M308 740q-24 -1 -68 -15q-5 -1 -23 -8q-9 -5 -9 -15q-4 -36 -9 -54q-6 -26 -2 -36.5t26 -25.5q1 -1 5 -3q12 -7 21 3q29 34 59 92q11 19 17 38q6 16 3 20.5t-20 3.5zM254 329q0 -2 0.5 -5.5t0.5 -4.5q-4 -56 -7 -83q-11 -90 -11 -146q0 -32 20 -48q49 -36 66 -46
q20 -14 34 8q13 21 37 65q10 19 4 34q-1 3 -1 11q1 15 2.5 43.5t3 51.5t3.5 43q7 66 5 108q-3 64 -66 68l-7 1q-91 -2 -135 -13q-28 -7 -84 -23l-3 19q-2 11 -8 33q-4 14 -17 11q-9 -2 -29 -5.5t-30 -5.5q-14 -3 -16 -17q-4 -18 -4 -27q-8 -149 -11 -218q-2 -30 1 -44
q3 -20 20 -106q3 -20 19 -31q25 -19 44 -31q16 -11 27 6l27 45q7 13 4 35q-8 44 -9 67q-3 91 18 155q9 28 34 38q37 13 68 12z" />
    <glyph glyph-name="iotatonos" unicode="&#x3af;" horiz-adv-x="150" 
d="M159 740q-24 -1 -68 -15q-5 -1 -23 -8q-9 -5 -9 -15q-4 -36 -9 -54q-6 -26 -2 -36.5t26 -25.5q1 -1 5 -3q12 -7 21 3q29 34 59 92q11 19 17 38q6 16 3 20.5t-20 3.5zM5 192l9 -93q6 -44 19 -67q7 -12 17 -23q8 -10 21.5 -8.5t20.5 13.5q9 21 11 29q3 15 7 45q1 14 4.5 57
t6.5 66q2 17 6 60.5t8.5 74.5t13.5 60q7 19 -16 19q-42 -1 -111 -26q-1 -1 -4 -2.5t-4 -1.5q-10 -6 -9 -18q2 -34 2 -51q2 -40 1 -61q0 -10 -3 -73z" />
    <glyph glyph-name="upsilondieresistonos" unicode="&#x3b0;" horiz-adv-x="500" 
d="M316 740q-24 -1 -68 -15q-5 -1 -23 -8q-9 -5 -9 -15q-4 -36 -9 -54q-6 -26 -2 -36.5t26 -25.5q1 -1 5 -3q12 -7 21 3q29 34 59 92q11 19 17 38q6 16 3 20.5t-20 3.5zM467 666q-38 0 -95 -21q-11 -4 -15 -8.5t-2.5 -10.5t9.5 -15q29 -35 76 -59q16 -9 27 8l32 63q3 7 3 15
q2 6 -3 11q-16 21 -32 17zM121 661q-40 -1 -99 -25q-10 -4 -23 -15q-16 -17 0 -30q13 -11 41 -31q15 -11 35 -4q2 1 12 4t15 6t9 9q25 47 32 65q6 13 2 18t-19 4q-1 0 -2.5 -0.5t-2.5 -0.5zM222 124l-15 15q-24 26 -49 80q-15 31 -17 70q-2 68 9 134q3 27 2 48q-1 9 -4 11
t-12 2q-29 -1 -72 -16q-9 -3 -14 -16l-6 -15t-7.5 -18t-7.5 -15q-29 -65 -29 -143q0 -29 2 -36q21 -91 80 -149q41 -41 105 -78q14 -8 36 -15q36 -11 63 15q18 18 26 32q50 79 77 167q14 48 24 132l9 105q1 17 -17 17h-5q-43 -1 -123 -27q-6 -1 -11 -5q-11 -7 -10 -21
q3 -31 3 -64q2 -106 -28 -187q-2 -8 -9 -23z" />
    <glyph glyph-name="alpha" unicode="&#x3b1;" horiz-adv-x="477" 
d="M295 135q12 -41 17 -56q15 -34 21 -41q26 -32 80 -59q16 -7 25 7q29 44 42 82q3 13 -5 22q-6 7 -9 17q-7 21 -16 52q-23 79 -29 219q-1 21 -5 24.5t-24 1.5q-16 -1 -33 8q-63 33 -122 32q-76 -3 -142 -33q-82 -36 -93 -127q-11 -97 42 -195q27 -47 92 -88
q20 -17 39.5 -16t42.5 30q4 4 36 53zM170 157q-2 5 -3 6q-31 67 -23 143q2 8 6 12q14 14 33 18q13 3 39 1.5t41 -6.5q-18 -47 -93 -174z" />
    <glyph glyph-name="beta" unicode="&#x3b2;" horiz-adv-x="511" 
d="M179 -129q3 -6 7 -16q30 -77 36 -95q10 -28 42 -51q11 -9 19 3q5 7 18 31q12 23 8 47q-3 15 -11 51t-12 55q-2 11 -11 44q13 9 66 50q93 70 148 185q16 34 16 66q0 40 -38 51q-9 3 -29 5l-45 3q2 3 4 7q19 29 41 64q38 60 33 142q-3 48 -24 84q-12 23 -43 25
q-36 0 -85 -14q-37 -10 -59 -34q-24 -28 -36 -48q-24 -38 -54 -122q-5 -13 -13 -40t-13 -40q-4 -11 -8 -39t-11 -42q-2 -3 0 -5q3 -9 0 -52q-5 -83 8 -157q1 -7 3.5 -20t4.5 -19q-37 -26 -41 -29q-62 -42 -85 -52q-14 -7 -16 -14t7 -20l8 -9l48 -42q16 -15 36 -3
q44 26 66 40zM348 515q3 -12 3 -60q0 -52 -42 -94q-19 -21 -49 -41q0 8 1 10q31 101 49 141q16 33 38 44zM247 56q-11 70 -7 129q78 20 141 19q2 -6 -3 -21q-10 -23 -39 -56q-25 -29 -92 -71z" />
    <glyph glyph-name="gamma" unicode="&#x3b3;" horiz-adv-x="451" 
d="M5 373q2 -14 22 -34q55 -60 123 -173q7 -10 -1 -21q-30 -44 -43 -67q-17 -31 -22 -51q-6 -29 -8 -71q-5 -66 37 -117q45 -53 110 -89q23 -14 57 -17q22 -2 34 12q22 27 41 53q5 9 7 24q3 44 3 87q-2 87 -30 146q-7 15 -22.5 41t-20.5 36q-6 9 -11 19q1 2 1 4
q38 54 112 162q32 46 48 68q8 14 11 21q4 13 -10 16q-3 1 -9 1q-36 4 -118 -9q-20 -4 -28 -26q-12 -40 -63 -127q-1 -2 -4 -5t-4 -5q-4 5 -10 13.5t-8 11.5q-36 50 -79 86q-29 22 -57 21q-13 -1 -46 -5q-2 0 -12 -5zM240 -150q-24 21 -37 54q-10 32 -7 66q1 13 5 36t5 29
q1 4 5 9q33 -72 29 -194z" />
    <glyph glyph-name="delta" unicode="&#x3b4;" horiz-adv-x="432" 
d="M196 591q3 0 5.5 -0.5t3.5 -0.5q71 -14 176 -10q6 0 17.5 2t15.5 2q17 3 27 19l30 61q6 14 7 22q4 19 -15 19q-10 0 -15 -1q-6 -1 -23.5 -3.5t-27.5 -3.5q-115 -4 -192 21q-47 15 -90 9q-42 -5 -96 -26q-20 -8 -19 -32q3 -36 26 -74q5 -8 50 -74l91 -132q2 -3 6 -11
l-17 -6q-38 -13 -69 -45q-33 -35 -51 -79q-28 -70 11 -134q30 -47 70 -76q42 -32 66 -43q67 -30 110 28q8 10 11 15q34 62 46 101q29 90 5 170q-14 52 -52 114q-5 9 -95 149zM214 111q-2 0 -3 1q-62 57 -58 124q0 14 10 27q24 26 48 38q22 -35 22 -94.5t-19 -95.5z" />
    <glyph glyph-name="epsilon" unicode="&#x3b5;" horiz-adv-x="423" 
d="M416 434q0 15 1 22q-18 24 -55 31q-77 11 -163 -13q-56 -16 -80 -32q-35 -25 -68 -62q-26 -28 -39 -48q-27 -40 5 -75q1 -1 34 -31q6 -5 17 -13.5t14 -10.5l-36 -53q-16 -25 -16 -62q2 -29 19 -46q19 -18 42 -36q29 -25 74 -15q125 27 191 127q11 18 11 33q-6 2 -8 2h-10
q-50 -7 -83 -35q-29 -28 -65 -44q-32 -14 -49 8q-8 10 -7.5 27.5t10.5 27.5q37 42 78 47q28 4 33.5 8t21.5 31q14 22 23 44q10 22 -15 22q-17 0 -53 -4q-39 -6 -77 11q-14 6 -17 16q48 50 77 62q22 11 48 9q4 0 12 -0.5t13 -0.5q12 0 24 -9q18 -14 26 -18q15 -8 26 5
q5 8 6 11q6 11 17.5 32.5t17.5 31.5z" />
    <glyph glyph-name="zeta" unicode="&#x3b6;" 
d="M230 -30q-25 0 -49 -15t-32 -35q-16 -40 7 -67q38 -43 78 -57q76 -26 124 30q16 17 27 41q18 38 30 80q18 60 17 110q-2 27 -12 44q-18 29 -34 45q-14 14 -49 50t-53 56q-16 16 -62 72q-18 23 -22 53q-2 11 6 18q39 38 73 52q33 16 105 30q20 4 31 3q15 -2 21 1.5
t11 16.5q13 30 28 73q5 13 6 27q3 18 -14 24q-50 17 -63 19q-180 37 -245 55q-7 2 -22 2q-41 -2 -121 -39q-2 -1 -10 -9q-11 -9 -4 -19q8 -13 18 -24q9 -8 51 -43q16 -13 35 -16q6 -1 17 -3t14 -3l45 -10q-10 -8 -12 -10q-47 -34 -76 -74q-44 -66 -8 -147q13 -32 45 -62
q19 -18 40.5 -38t48 -44.5t40.5 -37.5q28 -26 42 -41q19 -21 25 -47q14 -77 -8 -132q-3 -9 -18 -30q-6 -9 -17 -6q-22 3 -42 15q-34 21 -20 63q0 2 8 29z" />
    <glyph glyph-name="eta" unicode="&#x3b7;" horiz-adv-x="414" 
d="M254 329q0 -2 0.5 -5.5t0.5 -4.5q-4 -56 -7 -83q-11 -90 -11 -146q0 -32 20 -48q49 -36 66 -46q20 -14 34 8q13 21 37 65q10 19 4 34q-1 3 -1 11q1 15 2.5 43.5t3 51.5t3.5 43q7 66 5 108q-3 64 -66 68l-7 1q-91 -2 -135 -13q-28 -7 -84 -23l-3 19q-2 11 -8 33
q-4 14 -17 11q-9 -2 -29 -5.5t-30 -5.5q-14 -3 -16 -17q-4 -18 -4 -27q-8 -149 -11 -218q-2 -30 1 -44q3 -20 20 -106q3 -20 19 -31q25 -19 44 -31q16 -11 27 6l27 45q7 13 4 35q-8 44 -9 67q-3 91 18 155q9 28 34 38q37 13 68 12z" />
    <glyph glyph-name="theta" unicode="&#x3b8;" horiz-adv-x="408" 
d="M384 525q-1 19 -5 57q-7 70 -10 84q-7 42 -54 50q-40 7 -85 -4q-90 -21 -132 -60q-38 -38 -62 -79q-17 -27 -29 -58q-8 -21 -4.5 -33.5t20.5 -27.5q18 -14 27 -22l-13 -26q-38 -82 -31 -203q0 -10 6 -32q38 -136 187 -203q56 -24 91 30q38 63 51 115q15 58 34 140
q22 102 19 198q-2 29 6 46q0 1 3 11q2 11 -8 14q-6 2 -11 3zM249 610l9 -87q-18 -6 -58 -8t-55 2q0 21 43 61q33 31 61 32zM271 415q7 -49 -13.5 -177t-42.5 -167l-13 10q-79 71 -83 175q-2 79 3 111l9 38q50 4 140 10z" />
    <glyph glyph-name="iota" unicode="&#x3b9;" horiz-adv-x="150" 
d="M5 192l9 -93q6 -44 19 -67q7 -12 17 -23q8 -10 21.5 -8.5t20.5 13.5q9 21 11 29q3 15 7 45q1 14 4.5 57t6.5 66q2 17 6 60.5t8.5 74.5t13.5 60q7 19 -16 19q-42 -1 -111 -26q-1 -1 -4 -2.5t-4 -1.5q-10 -6 -9 -18q2 -34 2 -51q2 -40 1 -61q0 -10 -3 -73z" />
    <glyph glyph-name="kappa" unicode="&#x3ba;" horiz-adv-x="499" 
d="M205 126l16 -9q51 -28 64 -34q107 -54 147 -79l13 -6q13 -6 19 6q9 14 25 44q5 9 -1 22q-15 28 -37 45q-36 26 -55 37l-126 75q-11 6 -13 11q26 6 71 16.5t62 14.5q18 3 26 17q13 22 37 66q6 12 9 25q2 9 -1 13.5t-13 3.5q-33 0 -49 -2q-70 -14 -101 -28q-5 -2 -21 -7
l-70 -15q-4 -1 -13 -1q0 4 -0.5 9.5t-0.5 8.5q-2 34 -1.5 49t3 48.5t3.5 48.5q1 13 -2 16.5t-16 3.5q-40 1 -110 -21q-2 0 -13 -6q-8 -6 -5 -15q5 -14 7 -64l3 -99q0 -2 -0.5 -7.5t-0.5 -8.5l-21 -6q-14 -4 -20 -7q-33 -14 -8 -39q22 -22 43 -36q14 -10 17 -29
q7 -72 38 -152q11 -29 45 -51q13 -8 21 4q38 55 31 107q-1 5 -1.5 15.5t-0.5 15.5z" />
    <glyph glyph-name="lambda" unicode="&#x3bb;" horiz-adv-x="480" 
d="M250 515h-17q-37 1 -95 -10q-15 -3 -23 -14q-33 -47 -60 -107q-33 -76 -38 -127q-10 -81 -13 -119q-4 -33 -4 -76q0 -49 38 -85q3 -2 10.5 -10t12.5 -11q10 -6 19 3q10 10 14 16q16 20 15 41q-2 18 7 62l30 149q16 78 19 87q16 50 53 106q8 12 34 46v-42q-6 -118 -8 -177
q-3 -96 37 -173q41 -80 104 -124q13 -9 20.5 -8t17.5 13q21 26 43 55q2 3 5 9l4 8q6 11 -3 24q-48 60 -64 147q-9 52 -13 156q-2 70 -6 140q-5 61 -24 102q-42 94 -141 101q-46 4 -98 -4q-34 -5 -53 -15q-27 -15 -30 -44q-6 -69 49 -113q10 -8 15 -7.5t14 11.5t7 19
q-6 26 2 69q1 9 13 11q29 6 68 -6q9 -3 14 -13q18 -30 25 -90z" />
    <glyph glyph-name="uni03BC" unicode="&#x3bc;" horiz-adv-x="432" 
d="M201 98q-3 3 -8 7.5t-8 7.5t-5 6q-34 37 -55 112q-1 3 -1 10q1 7 6 50t9 66q2 13 -1 16.5t-15 4.5q-40 3 -107 -16q-2 0 -4.5 -1.5t-3.5 -1.5q-11 -6 -7 -17q3 -9 3 -18q0 -20 -2 -60q-2 -66 -1 -85q5 -77 15 -153q5 -34 32 -187q4 -29 24 -59q11 -16 26 -20l4 4
q25 33 23 80q-1 55 -5 165l-3 38q3 -2 7.5 -5.5t7.5 -5.5q32 -22 49 -32q8 -5 34 -12q24 -4 40 16q4 5 11 16t9 13q2 3 8 9q30 -34 67 -58q19 -14 33 6q19 30 40 67q10 16 1 34q-10 19 -26 74q-22 85 -30 142q-3 13 -13 39q-4 11 -19 13q-38 1 -94 -15q-10 -3 -13 -7.5
t-2 -16.5q4 -58 5 -88q0 -6 -2 -16l-18 -77q-2 -8 -5.5 -23t-5.5 -22z" />
    <glyph glyph-name="nu" unicode="&#x3bd;" horiz-adv-x="493" 
d="M234 237q-4 3 -5 8q-8 15 -30 62t-35 72q-10 18 -22 38q-10 15 -30 14q-36 -2 -90 -21q-18 -6 -21.5 -12.5t3.5 -24.5q36 -90 55 -134q10 -22 37 -79.5t40 -88.5q14 -37 42 -56q30 -21 53 -34q14 -9 27 5l6 9q75 129 124 243q3 7 57 118l36 73q3 6 5 18q3 17 -13 17h-5
q-51 0 -130 -30q-12 -4 -20 -16q-11 -17 -21 -38q-26 -57 -58 -133l-3 -6q-1 -3 -2 -4z" />
    <glyph glyph-name="xi" unicode="&#x3be;" horiz-adv-x="589" 
d="M270 339v5q131 34 152 39q36 9 110 25q15 3 20 15q25 63 27 70q5 14 2.5 20t-16.5 13q-32 17 -77 27q-46 11 -158 19q-76 6 -118 8q-25 2 -45 -1q-36 -4 -100 -34q-12 -6 -16 -11t-1.5 -11.5t12.5 -14.5q29 -24 76 -45q8 -3 18 -3q19 0 56 -2t55 -2q3 0 10 -0.5t11 -0.5
q-2 -2 -12 -7l-65 -15q-96 -22 -164 -53q-21 -9 -34 -19q-22 -18 -4 -41q6 -9 20 -19q52 -37 105 -54l14 -4q-5 -4 -13 -11t-12 -10q-19 -19 -19 -36q-2 -41 22 -67q16 -19 46 -39q57 -36 133 -52q14 -3 40 -9.5t33 -8.5q14 -4 17 -20q3 -26 -11 -43q-47 -62 -106 -66
q-46 -3 -75 18q-14 10 -19 29q-2 12 10 28q15 19 13 32q-1 0 -2 1l-1 1h-4q-45 -10 -78 -45q-14 -14 -13.5 -35.5t15.5 -36.5q52 -50 108 -53q91 -4 175 57q60 44 75 139q6 39 -31 60q-21 13 -42 20q-16 6 -48.5 17t-47.5 17q-28 10 -49 21q-20 11 -29 30q1 3 3 3q2 2 6 4
q70 30 146 36q23 2 73 4q20 2 25 16q23 56 26 66q6 17 2 22.5t-23 4.5l-159 -6q-48 0 -64 8z" />
    <glyph glyph-name="omicron" unicode="&#x3bf;" horiz-adv-x="492" 
d="M247 445q-58 -5 -69 -8q-43 -11 -98 -31q-30 -9 -55 -38q-36 -39 -20 -92q3 -9 1 -21q-20 -100 45 -175q42 -51 101 -80q82 -40 160 2q73 41 115 113q14 25 38 79q15 33 18 79q3 34 -18 59q-24 29 -62 57q-79 59 -156 56zM217 315q51 0 104 -36q24 -17 24 -46
q0 -33 -24 -69q-20 -30 -59 -62q-8 -7 -20 -5q-54 12 -82 58q-32 51 -26 114q3 23 32 36q9 5 29 9q7 1 22 1z" />
    <glyph glyph-name="pi" unicode="&#x3c0;" horiz-adv-x="474" 
d="M112 372q-3 -1 -20 -7q-3 -1 -8.5 -3.5t-10 -4.5t-8.5 -4q-10 -5 -8 -13q2 -47 6 -70q10 -71 24 -145q10 -61 18 -87q13 -52 61 -68l4 7q22 38 26 58q10 59 13 91q5 59 -1 178q-1 8 -1 16.5t0.5 20t0.5 17.5q85 -4 119 -12v-16q2 -118 3 -176q1 -56 12 -112q4 -25 24 -40
q15 -10 17 -11q15 -10 23 6q24 41 29 71q14 83 15 92q8 78 10 201q0 46 7 68q4 13 0.5 18.5t-16.5 8.5q-86 23 -149 29q-70 8 -104 17q-24 7 -55 5q-49 -3 -124 -31q-3 -1 -13 -8q-9 -8 -3 -18q6 -9 14 -17q52 -45 95 -61z" />
    <glyph glyph-name="rho" unicode="&#x3c1;" horiz-adv-x="476" 
d="M178 42q4 0 10 0.5t8 0.5q60 7 105 24q67 27 93 57q29 33 49 59q39 56 12 119q-7 15 -17 32q-49 78 -137 91q-96 13 -201 -6q-28 -5 -82 -21q-14 -4 -17 -9.5t2 -18.5q10 -32 10 -78q0 -101 9 -161q5 -30 9 -94q5 -71 23 -179q8 -51 40 -76l1 -2q1 -2 2 -3q5 -8 15.5 -8
t16.5 7q25 36 27 53q6 31 14 100q6 74 8 113zM173 151q-6 10 -2 86t4 85q18 2 24 2q8 -1 24 -2.5t23 -1.5q18 -3 28 -20q22 -37 13 -78q-6 -18 -13 -24q-39 -32 -101 -47z" />
    <glyph glyph-name="uni03C2" unicode="&#x3c2;" horiz-adv-x="436" 
d="M160 347l56 3q38 0 57 -18q13 -13 25 3q10 15 26 47q10 18 -7 35q-15 17 -49 23q-76 11 -140 -4q-50 -12 -74 -20q-46 -17 -52 -65l-3 -39q-4 -43 29 -76q29 -29 57 -50q15 -12 32.5 -25t38.5 -28t33 -24q34 -27 58 -62q31 -48 -8 -90l-10 -10q-52 -48 -123 -81
q-16 -8 -28 -16q-28 -19 -3 -41q6 -6 10 -8q30 -19 35 -22q34 -19 73 -3q28 13 34 16q125 61 186 190q29 61 -12 114q-20 27 -47 51q-37 30 -113 86q-40 28 -64 53q-24 27 -17 61z" />
    <glyph glyph-name="sigma" unicode="&#x3c3;" horiz-adv-x="421" 
d="M261 371q35 29 69 35q6 2 19 -2q16 -5 26 7l4 7q10 23 32 71q3 7 5 21q2 10 -2 14.5t-14 3.5q-27 0 -40 -2q-58 -10 -117 -37q-80 -36 -130 -100q-36 -45 -89 -140q-29 -53 -23 -122q6 -52 39 -82q32 -29 63 -50q18 -13 38 -16q64 -14 114 30q15 14 29 29q61 65 101 178
q13 36 6 87q-8 44 -48 59q-16 6 -42 8q-6 1 -40 1zM274 280q7 -59 -12 -96q-30 -56 -65 -89q-11 -11 -24 -5q-36 17 -44 58q0 2 -0.5 6t-0.5 6q-5 44 15 77q17 31 50 39q41 11 81 4z" />
    <glyph glyph-name="tau" unicode="&#x3c4;" horiz-adv-x="508" 
d="M335 378q3 0 8 0.5t8 1.5q13 0 40.5 0.5t41.5 0.5q21 0 29 17q25 49 32 63q4 7 8 23q3 13 -11 15q-8 1 -17 0q-19 -2 -57.5 -5t-57.5 -5q-96 -6 -191 -32q-88 -24 -128 -45q-20 -12 -30 -20q-18 -15 0 -30q6 -5 19 -14t17 -12q11 -8 23 -3q12 4 52 16q36 8 53 13
q12 -18 14 -38q10 -96 9 -144q-1 -22 1 -67q2 -52 19 -91q9 -25 30 -38q17 -10 23.5 -8t13.5 21q11 28 19 86q1 9 3.5 37t4.5 43q3 22 10 69t10 71q2 13 4 75z" />
    <glyph glyph-name="upsilon" unicode="&#x3c5;" horiz-adv-x="424" 
d="M222 124l-15 15q-24 26 -49 80q-15 31 -17 70q-2 68 9 134q3 27 2 48q-1 9 -4 11t-12 2q-29 -1 -72 -16q-9 -3 -14 -16l-6 -15t-7.5 -18t-7.5 -15q-29 -65 -29 -143q0 -29 2 -36q21 -91 80 -149q41 -41 105 -78q14 -8 36 -15q36 -11 63 15q18 18 26 32q50 79 77 167
q14 48 24 132l9 105q1 17 -17 17h-5q-43 -1 -123 -27q-6 -1 -11 -5q-11 -7 -10 -21q3 -31 3 -64q2 -106 -28 -187q-2 -8 -9 -23z" />
    <glyph glyph-name="phi" unicode="&#x3c6;" horiz-adv-x="493" 
d="M192 -2q0 -2 0.5 -7.5t0.5 -7.5q-2 -80 -2 -119q0 -14 2 -40q3 -45 33 -68q8 -7 12 -6.5t8 9.5q16 44 19 57q6 26 14 80q2 16 6.5 50t7.5 51q0 11 10 15q44 19 91 66q57 59 86 160q23 84 -37 147l-3 3q-54 56 -115 69q-41 9 -95 1q-66 -9 -124 -39q-26 -13 -42 -40
q-1 -2 -6.5 -11t-8.5 -14q-30 -38 -40 -81q-8 -36 -6 -96q2 -43 27 -74q69 -82 153 -102q1 0 2.5 -1t3 -1.5t3.5 -0.5zM186 99q-65 31 -76 89q-7 47 2 98q2 10 5 13q20 32 59 49.5t70 12.5l-12 -5q-3 -1 -9.5 -3.5t-9.5 -3.5q-23 -8 -24 -30q-1 -16 -3 -46.5t-2 -45.5v-128z
M321 346q16 -10 17 -11q39 -37 39 -83q-1 -74 -75 -136q-2 9 -1 12q1 14 3.5 41.5t3.5 41.5q2 16 4.5 47t3.5 46q0 5 5 42z" />
    <glyph glyph-name="chi" unicode="&#x3c7;" horiz-adv-x="473" 
d="M259 288q-8 11 -14 21q-31 51 -82 116q-11 15 -31 14q-36 -1 -82 -15q-32 -11 -38 -13q-19 -9 -6 -26q3 -4 9 -10q52 -54 81 -92q4 -6 63 -76q7 -7 10 -11q-4 -6 -6 -8q-52 -60 -86 -116q-11 -16 -18 -33q-8 -18 7 -30q6 -6 25 -18q16 -10 21 -9t17 14q7 8 19.5 23.5
t23 28t20.5 23.5q9 11 49 53q3 -4 9 -10q34 -41 67 -79q18 -23 45 -36q10 -6 17 4q35 51 15 98q-17 36 -56 88q-1 1 -5.5 6.5t-7.5 9.5q4 3 36.5 31t49.5 43q13 10 14 12q31 56 36 69q7 14 3 19.5t-20 4.5q-28 -1 -92 -18q-29 -9 -42 -24q-4 -5 -12.5 -13t-12.5 -13z" />
    <glyph glyph-name="psi" unicode="&#x3c8;" horiz-adv-x="568" 
d="M324 181v12q0 33 2 98t2 97q2 26 9 42l6 18q2 13 -2 18t-17 5q-45 -1 -125 -29q-23 -8 -24 -30q-4 -30 -3 -46q0 -4 6 -155l3 -55q-5 3 -9 9l-27 61q-23 57 -25 122q0 17 -6 55q-3 16 -19 13q-20 -3 -60 -13q-26 -4 -29 -33q-2 -15 -4 -49q-8 -71 23 -151
q47 -128 155 -189q14 -8 14 -25q0 -123 13 -215q6 -53 23 -96q14 -34 54 -57l11 -3q9 14 16 26q8 16 7 35q-3 47 -2 83q2 85 8 253q0 12 10 21q45 37 85 99q38 60 91 167q31 63 43 107q6 20 9 43q3 18 -16 18h-11q-42 -2 -116 -28q-8 -3 -13 -7q-10 -7 -9 -18q4 -26 -9 -62
q-16 -49 -58 -133z" />
    <glyph glyph-name="omega" unicode="&#x3c9;" horiz-adv-x="508" 
d="M135 197q-3 0 -4 -1q-4 10 -5 14q-4 39 -7 62q-4 41 28 85q16 22 26 51q4 15 0.5 18.5t-18.5 1.5h-3q-46 -12 -77 -38q-71 -61 -75 -148q-5 -96 51 -169q28 -37 65 -66q13 -9 23 -13q21 -10 37 9q5 7 13 21l21 49q1 1 1.5 2.5t1.5 3t1.5 3t1.5 3.5q1 -2 2.5 -3.5
l2.5 -2.5q34 -43 75 -74q17 -13 38 -21q37 -14 64 13q7 7 21 23q22 30 45 89q32 83 36 143q5 67 -18 187q-4 16 -14 32q-10 17 -31 15q-32 -1 -93 -26q-20 -9 -22.5 -19.5t9.5 -28.5q12 -20 15 -30q27 -88 20 -177q-3 -36 -18 -67q-10 14 -15 22q-24 43 -38 110
q-3 13 -7.5 39.5t-6.5 39.5q-1 10 -4.5 12.5t-12.5 1.5q-34 -1 -96 -29q-12 -6 -15 -20q-1 -9 -3.5 -26t-3.5 -24q-2 -10 -5.5 -32.5t-5.5 -34.5z" />
    <glyph glyph-name="iotadieresis" unicode="&#x3ca;" horiz-adv-x="150" 
d="M301 666q-38 0 -95 -21q-11 -4 -15 -8.5t-2.5 -10.5t9.5 -15q29 -35 76 -59q16 -9 27 8l32 63q3 7 3 15q2 6 -3 11q-16 21 -32 17zM-45 661q-40 -1 -99 -25q-10 -4 -23 -15q-16 -17 0 -30q13 -11 41 -31q15 -11 35 -4q2 1 12 4t15 6t9 9q25 47 32 65q6 13 2 18t-19 4
q-1 0 -2.5 -0.5t-2.5 -0.5zM5 192l9 -93q6 -44 19 -67q7 -12 17 -23q8 -10 21.5 -8.5t20.5 13.5q9 21 11 29q3 15 7 45q1 14 4.5 57t6.5 66q2 17 6 60.5t8.5 74.5t13.5 60q7 19 -16 19q-42 -1 -111 -26q-1 -1 -4 -2.5t-4 -1.5q-10 -6 -9 -18q2 -34 2 -51q2 -40 1 -61
q0 -10 -3 -73z" />
    <glyph glyph-name="upsilondieresis" unicode="&#x3cb;" horiz-adv-x="424" 
d="M438 666q-38 0 -95 -21q-11 -4 -15 -8.5t-2.5 -10.5t9.5 -15q29 -35 76 -59q16 -9 27 8l32 63q3 7 3 15q2 6 -3 11q-16 21 -32 17zM92 661q-40 -1 -99 -25q-10 -4 -23 -15q-16 -17 0 -30q13 -11 41 -31q15 -11 35 -4q2 1 12 4t15 6t9 9q25 47 32 65q6 13 2 18t-19 4
q-1 0 -2.5 -0.5t-2.5 -0.5zM222 124l-15 15q-24 26 -49 80q-15 31 -17 70q-2 68 9 134q3 27 2 48q-1 9 -4 11t-12 2q-29 -1 -72 -16q-9 -3 -14 -16l-6 -15t-7.5 -18t-7.5 -15q-29 -65 -29 -143q0 -29 2 -36q21 -91 80 -149q41 -41 105 -78q14 -8 36 -15q36 -11 63 15
q18 18 26 32q50 79 77 167q14 48 24 132l9 105q1 17 -17 17h-5q-43 -1 -123 -27q-6 -1 -11 -5q-11 -7 -10 -21q3 -31 3 -64q2 -106 -28 -187q-2 -8 -9 -23z" />
    <glyph glyph-name="omicrontonos" unicode="&#x3cc;" horiz-adv-x="492" 
d="M323 740q-24 -1 -68 -15q-5 -1 -23 -8q-9 -5 -9 -15q-4 -36 -9 -54q-6 -26 -2 -36.5t26 -25.5q1 -1 5 -3q12 -7 21 3q29 34 59 92q11 19 17 38q6 16 3 20.5t-20 3.5zM247 445q-58 -5 -69 -8q-43 -11 -98 -31q-30 -9 -55 -38q-36 -39 -20 -92q3 -9 1 -21q-20 -100 45 -175
q42 -51 101 -80q82 -40 160 2q73 41 115 113q14 25 38 79q15 33 18 79q3 34 -18 59q-24 29 -62 57q-79 59 -156 56zM217 315q51 0 104 -36q24 -17 24 -46q0 -33 -24 -69q-20 -30 -59 -62q-8 -7 -20 -5q-54 12 -82 58q-32 51 -26 114q3 23 32 36q9 5 29 9q7 1 22 1z" />
    <glyph glyph-name="upsilontonos" unicode="&#x3cd;" horiz-adv-x="424" 
d="M321 740q-24 -1 -68 -15q-5 -1 -23 -8q-9 -5 -9 -15q-4 -36 -9 -54q-6 -26 -2 -36.5t26 -25.5q1 -1 5 -3q12 -7 21 3q29 34 59 92q11 19 17 38q6 16 3 20.5t-20 3.5zM222 124l-15 15q-24 26 -49 80q-15 31 -17 70q-2 68 9 134q3 27 2 48q-1 9 -4 11t-12 2q-29 -1 -72 -16
q-9 -3 -14 -16l-6 -15t-7.5 -18t-7.5 -15q-29 -65 -29 -143q0 -29 2 -36q21 -91 80 -149q41 -41 105 -78q14 -8 36 -15q36 -11 63 15q18 18 26 32q50 79 77 167q14 48 24 132l9 105q1 17 -17 17h-5q-43 -1 -123 -27q-6 -1 -11 -5q-11 -7 -10 -21q3 -31 3 -64
q2 -106 -28 -187q-2 -8 -9 -23z" />
    <glyph glyph-name="omegatonos" unicode="&#x3ce;" horiz-adv-x="508" 
d="M323 740q-24 -1 -68 -15q-5 -1 -23 -8q-9 -5 -9 -15q-4 -36 -9 -54q-6 -26 -2 -36.5t26 -25.5q1 -1 5 -3q12 -7 21 3q29 34 59 92q11 19 17 38q6 16 3 20.5t-20 3.5zM135 197q-3 0 -4 -1q-4 10 -5 14q-4 39 -7 62q-4 41 28 85q16 22 26 51q4 15 0.5 18.5t-18.5 1.5h-3
q-46 -12 -77 -38q-71 -61 -75 -148q-5 -96 51 -169q28 -37 65 -66q13 -9 23 -13q21 -10 37 9q5 7 13 21l21 49q1 1 1.5 2.5t1.5 3t1.5 3t1.5 3.5q1 -2 2.5 -3.5l2.5 -2.5q34 -43 75 -74q17 -13 38 -21q37 -14 64 13q7 7 21 23q22 30 45 89q32 83 36 143q5 67 -18 187
q-4 16 -14 32q-10 17 -31 15q-32 -1 -93 -26q-20 -9 -22.5 -19.5t9.5 -28.5q12 -20 15 -30q27 -88 20 -177q-3 -36 -18 -67q-10 14 -15 22q-24 43 -38 110q-3 13 -7.5 39.5t-6.5 39.5q-1 10 -4.5 12.5t-12.5 1.5q-34 -1 -96 -29q-12 -6 -15 -20q-1 -9 -3.5 -26t-3.5 -24
q-2 -10 -5.5 -32.5t-5.5 -34.5z" />
    <glyph glyph-name="endash" unicode="&#x2013;" horiz-adv-x="362" 
d="M0 320q13 -17 17 -20q19 -16 37 -27q16 -9 29 -9q37 -1 110.5 -2.5t110.5 -2.5q16 0 23 13l29 58q1 1 1.5 3l1 4t0.5 3q4 14 -11 17h-16q-32 0 -97.5 -1.5t-98.5 -2.5q-58 0 -113 -21q-4 -2 -11.5 -6t-11.5 -6z" />
    <glyph glyph-name="emdash" unicode="&#x2014;" horiz-adv-x="361" 
d="M0 320q13 -17 17 -20q19 -16 37 -27q16 -9 29 -9q37 -1 110.5 -2.5t110.5 -2.5q16 0 23 13l29 58q1 1 1.5 3l1 4t0.5 3q4 14 -11 17h-16q-32 0 -97.5 -1.5t-98.5 -2.5q-58 0 -113 -21q-4 -2 -11.5 -6t-11.5 -6z" />
    <glyph glyph-name="quoteleft" unicode="&#x2018;" horiz-adv-x="82" 
d="M1 800q-1 -5 -1 -14q0 -51 15 -111q1 -2 15 -37q6 -11 15 -3q6 5 11 14q13 20 15 60q2 50 11 70q-10 10 -36 17t-45 4z" />
    <glyph glyph-name="quoteright" unicode="&#x2019;" horiz-adv-x="82" 
d="M1 800q-1 -5 -1 -14q0 -51 15 -111q1 -2 15 -37q6 -11 15 -3q6 5 11 14q13 20 15 60q2 50 11 70q-10 10 -36 17t-45 4z" />
    <glyph glyph-name="quotesinglbase" unicode="&#x201a;" horiz-adv-x="600" 
d="M118 54q-43 -3 -94 -23q-21 -8 -9 -26q15 -24 5 -46l-12 -27q-10 -19 -8 -45q1 -10 10 -14.5t18 0.5q24 13 45 39q35 45 63 120q6 14 2 18.5t-20 3.5z" />
    <glyph glyph-name="quotedblleft" unicode="&#x201c;" horiz-adv-x="170" 
d="M170 798q-32 2 -76 -15q-8 -3 -5 -13q6 -22 7 -34q1 -8 3 -30t4 -34q3 -27 22 -41q9 -7 13 3q13 27 16 38q14 53 15 106q1 6 1 20zM64 775q-18 -2 -38.5 -13.5t-25.5 -22.5q6 -7 10 -15t8.5 -22t5.5 -17l12 -30q17 -27 36 -29q13 52 -8 149z" />
    <glyph glyph-name="quotedblright" unicode="&#x201d;" horiz-adv-x="171" 
d="M0 800v-24q3 -53 14 -94q6 -21 17 -44q4 -11 14 -3q8 7 12 14q12 21 14 57q0 6 1 18.5t1.5 19.5t2.5 17t6 18q-10 10 -36.5 17t-45.5 4zM106 779q-17 -61 -14 -118q0 -21 9 -33q1 1 7.5 4t8.5 5q13 15 19 27q4 7 13.5 37t21.5 44q-31 26 -65 34z" />
    <glyph glyph-name="quotedblbase" unicode="&#x201e;" horiz-adv-x="600" 
d="M118 54q16 1 20 -3.5t-2 -18.5q-28 -75 -63 -120q-21 -26 -45 -39q-9 -5 -18 -0.5t-10 14.5q-2 26 8 45l12 27q10 22 -5 46q-12 18 9 26q51 20 94 23z" />
    <glyph glyph-name="bullet" unicode="&#x2022;" horiz-adv-x="395" 
d="M257 442q-93 -1 -221 -47q-33 -13 -36 -29.5t24 -40.5q40 -37 124 -105q33 -25 76 -48q26 -15 42.5 -11t30.5 31q22 40 72 141q6 12 12 40q3 20 -14 29q-57 33 -110 40z" />
    <glyph glyph-name="ellipsis" unicode="&#x2026;" horiz-adv-x="654" 
d="M97 124q-21 -1 -81 -20l-11 -6q-8 -7 -3 -15q4 -6 6 -8q52 -48 90 -70q13 -7 19.5 -5t13.5 14q18 30 30 58q3 6 7 20q3 11 -7 16q-38 18 -64 16zM338 124q-21 -1 -81 -20l-11 -6q-8 -7 -3 -15q4 -6 6 -8q52 -48 90 -70q13 -7 19.5 -5t13.5 14q18 30 30 58q3 6 7 20
q3 11 -7 16q-38 18 -64 16zM579 124q-21 -1 -81 -20l-11 -6q-8 -7 -3 -15q4 -6 6 -8q52 -48 91 -70q20 -12 32 9q18 30 30 58q3 6 7 20q3 11 -7 16q-38 18 -64 16z" />
    <glyph glyph-name="guilsinglleft" unicode="&#x2039;" horiz-adv-x="600" 
d="M141 274q14 12 17 15q5 5 28 26t35 33q81 83 104 121l16 28q8 16 -6 25q-5 5 -11 8q-79 35 -128 37q-19 1 -27 -14q-20 -36 -57 -82q-10 -12 -29 -35t-29 -35q-16 -19 -36 -36q-26 -23 -15 -54q0 -1 0.5 -3l1 -4t1.5 -3q14 -38 35 -86q2 -5 10 -15q6 -6 60 -69t83 -95
q24 -31 49 -58q12 -14 24 -23q16 -10 28 2q16 15 18 25t-6 25q-14 31 -28 53l-97 147q-7 11 -20.5 33.5t-20.5 33.5z" />
    <glyph glyph-name="guilsinglright" unicode="&#x203a;" horiz-adv-x="600" 
d="M201 274l-2.5 -5l-2.5 -5q-18 -31 -35 -58l-48 -72t-47 -72q-16 -25 -29 -54q-14 -28 9 -49q15 -15 32 -3q14 11 25 25q14 16 41 48t41 48q36 42 110 126q7 9 10 17q15 32 27 63q5 13 11 39q5 22 -12 37l-4.5 4.5l-5.5 5.5l-5 5q-82 82 -141 178q-10 16 -28 15
q-49 -2 -126 -37q-33 -14 -13 -44q28 -45 49 -68q72 -80 120 -122q16 -14 24 -22z" />
    <glyph glyph-name="fraction" unicode="&#x2044;" horiz-adv-x="398" 
d="M0 15q0 -5 0.5 -15t1.5 -15q2 -20 13 -30q11 -9 20 1q7 7 15 21q3 6 16.5 32.5t19.5 41.5q82 186 128 277q18 34 47.5 97.5t40.5 85.5q22 47 44 81q24 37 45 86q2 6 4 18q3 14 -12 15h-8q-34 -1 -107 -26q-10 -5 -12 -7q-6 -6 -5 -12q1 -8 -8 -32l-89 -194
q-38 -88 -53 -118q-65 -144 -89 -236q-13 -53 -12 -71z" />
    <glyph glyph-name="Euro" unicode="&#x20ac;" horiz-adv-x="556" 
d="M229 217l2 4q1 0 3 0.5t3 0.5l175 12q14 1 44 3.5t44 3.5q16 0 21 11q21 51 26 68q4 10 0 14.5t-16 3.5q-14 -1 -42 -5l-246 -27q-29 -4 -47 -5q-6 26 19 29l91 6q58 4 172 12q15 2 18 11q20 50 23 60q4 11 0 15.5t-16 2.5q-50 -5 -175 -20l-61 -6q30 36 66 55
q57 31 128 44q25 3 43 -6q16 -9 24 9q14 32 20 49q11 37 -28 38h-7q-8 -1 -24.5 -2.5t-24.5 -2.5q-86 -15 -176 -59q-61 -27 -103 -79q-33 -40 -41 -52q-12 -15 -28 -16q-39 -6 -72 -22q-2 -1 -16 -10q31 -32 63 -31q-2 -15 -8 -43q-7 -2 -26.5 -8t-32.5 -11.5t-24 -14.5
q29 -34 99 -34q21 -47 81 -82q15 -9 34 -19q76 -41 150 -28q59 10 82 25q32 20 40 59v10l-30 -5q-82 -10 -98 -10q-62 0 -120 46z" />
    <glyph glyph-name="trademark" unicode="&#x2122;" horiz-adv-x="458" 
d="M335 724q-1 2 -6 10.5t-7 12.5q-15 28 -51 80q-2 3 -8 9q-3 4 -8 4q-4 0 -8 -1t-8.5 -2.5l-7.5 -2.5q-12 -5 -8 -15l15 -36l3 -6q-4 -2 -5 -3q-9 -3 -7 -11v-17q2 -102 8 -141q3 -30 12 -49q6 -14 24 -27q6 -4 9 2q12 23 11 42v99v6l3 -3q7 -12 8 -13q9 -15 33 -30
q5 -3 9 2q2 2 3 4l12 27q7 18 20 36l3 5q1 -2 1 -5l3 -46q0 -10 1 -31.5t2 -32.5q1 -20 8 -45q2 -7 6 -10q10 -7 11 -8q5 -4 9 2q10 15 10 39q2 26 4 78l3 123q2 16 1 23q0 7 3 14q5 9 9 22q3 9 -7 9q-16 0 -46 -12q-2 -1 -6 -7q-1 -1 -2.5 -4t-2.5 -4q-20 -33 -23 -38
q-6 -10 -17.5 -26.5t-15.5 -22.5zM134 763q3 1 6 1q2 0 19.5 1.5t26.5 1.5q8 0 13 8l8 17q6 16 8 24q3 8 0.5 11t-10.5 2q-35 -2 -42 -4q-45 -6 -90 -15q-29 -5 -55 -16q-10 -4 -14 -8q-6 -4 -2 -10q2 -4 4 -5l16 -15q8 -6 17 -5l14 2q6 0 22 2q0 -1 1 -3v-2q1 -11 2.5 -32
t2.5 -32q0 -10 1 -15q3 -25 11 -75l12 -51q3 -14 22 -27q5 -3 7 2q11 20 12 36q1 40 -5 88q-7 43 -7 113v6z" />
    <glyph glyph-name="notequal" unicode="&#x2260;" horiz-adv-x="400" 
d="M365 592q-22 -34 -44 -81q0 -1 -0.5 -1t-0.5 -1q21 1 63 1q17 0 21 -5.5t-3 -21.5q-10 -22 -32 -64q-7 -12 -26 -12h-71q-6 -13 -19 -39.5t-20 -39.5l-9 -17h10v1h45.5h53.5h46q14 0 21 -1q11 -1 10 -13q-5 -17 -7 -22q-18 -34 -27 -52q-8 -16 -29 -16q-114 2 -171 2
q-33 -73 -71 -159q-6 -15 -19.5 -41.5t-16.5 -32.5q-8 -14 -15 -21q-9 -10 -20 -1q-11 10 -13 30q-1 5 -1.5 15t-0.5 15q-1 18 12 71q17 64 42 126q-10 0 -34 2q-12 2 -16 5q-15 9 -50 36q-3 1 -8 9q-8 9 2 14q7 4 21 10q50 18 118 20h8q1 3 3 7.5t3 6.5q14 29 40 87h-83
q-36 -2 -63 20q-5 5 -16 13t-13 10q-22 22 6 32q59 21 96 22q19 0 58 1t59 1q38 84 58 126q9 24 8 32q-1 6 5 12q2 2 12 7q73 25 107 26h8q15 -1 12 -15q-2 -12 -4 -18q-21 -49 -45 -86z" />
  </font>
</defs>
</svg>
